<?xml version="1.0" encoding="utf-8"?>
<!-- Generator: Adobe Illustrator 18.0.0, SVG Export Plug-In . SVG Version: 6.00 Build 0)  -->
<!DOCTYPE svg PUBLIC "-//W3C//DTD SVG 1.1//EN" "http://www.w3.org/Graphics/SVG/1.1/DTD/svg11.dtd">
<svg version="1.1" id="Layer_1" xmlns="http://www.w3.org/2000/svg" xmlns:xlink="http://www.w3.org/1999/xlink" x="0px" y="0px"
	 viewBox="0 0 360 150" enable-background="new 0 0 360 150" xml:space="preserve">
<g>
	<polygon fill-rule="evenodd" clip-rule="evenodd" fill="#9BC5EA" points="190.9,124.7 197.5,124.7 202.6,132.6 195.9,132.6 
		190.9,124.7 	"/>
	<polygon fill-rule="evenodd" clip-rule="evenodd" fill="#7FB9E6" points="190.9,140.4 197.5,140.4 202.6,132.6 195.9,132.6 
		190.9,140.4 	"/>
	<polygon fill-rule="evenodd" clip-rule="evenodd" fill="#7AA43A" points="212.9,132.6 206.3,132.6 201.2,124.7 207.8,124.7 
		212.9,132.6 	"/>
	<polygon fill-rule="evenodd" clip-rule="evenodd" fill="#9FBF39" points="201.2,140.4 207.8,140.4 212.9,132.6 206.3,132.6 
		201.2,140.4 	"/>
	<path fill-rule="evenodd" clip-rule="evenodd" fill="#9FBF39" d="M227.7,131.6c0-1.3-0.9-2-2.3-2h-3v4h3
		C226.9,133.6,227.7,132.8,227.7,131.6L227.7,131.6L227.7,131.6z M227.7,140.8l-2.9-4.5h-2.3v4.5h-3v-14h6.2c3.2,0,5.1,1.7,5.1,4.6
		v0c0,2.3-1.2,3.7-2.9,4.4l3.3,5H227.7L227.7,140.8z"/>
	<path fill-rule="evenodd" clip-rule="evenodd" fill="#9FBF39" d="M234.5,125.7l2.2-3.5l2.5,1.1l-2.5,2.4H234.5L234.5,125.7z
		 M234.3,126.8h3v14h-3V126.8L234.3,126.8z"/>
	<path fill-rule="evenodd" clip-rule="evenodd" fill="#9FBF39" d="M252.1,133.8c0-2.4-1.7-4.4-4.1-4.4c-2.4,0-4.1,2-4.1,4.4v0
		c0,2.4,1.7,4.4,4.1,4.4C250.4,138.2,252.1,136.2,252.1,133.8L252.1,133.8L252.1,133.8z M248,141c-4.2,0-7.2-3.2-7.2-7.2l0,0
		c0-4,3-7.3,7.2-7.3c4.2,0,7.2,3.2,7.2,7.2v0C255.2,137.8,252.1,141,248,141L248,141z"/>
	<path fill-rule="evenodd" clip-rule="evenodd" fill="#9FBF39" d="M271.4,141c-4,0-7-3.2-7-7.2v0c0-4,2.9-7.3,7.1-7.3
		c2.6,0,4.1,0.9,5.4,2.2L275,131c-1-1-2.1-1.6-3.5-1.6c-2.3,0-3.9,2-3.9,4.4l0,0c0,2.4,1.6,4.4,3.9,4.4c1.6,0,2.5-0.6,3.6-1.6l1.9,2
		C275.6,140.1,274.1,141,271.4,141L271.4,141z"/>
	<path fill-rule="evenodd" clip-rule="evenodd" fill="#9FBF39" d="M285.8,141c-3.6,0-5.9-2.1-5.9-6.2l0-8h3v7.9
		c0,2.3,1.1,3.5,2.9,3.5c1.8,0,2.9-1.1,2.9-3.4v-8h3v7.9C291.7,138.9,289.4,141,285.8,141L285.8,141z"/>
	<path fill-rule="evenodd" clip-rule="evenodd" fill="#9FBF39" d="M301,130.4l-1.8,4.6h3.6L301,130.4L301,130.4z M305.1,140.8
		l-1.2-3.1h-5.7l-1.2,3.1h-3l5.8-14.1h2.8l5.8,14.1H305.1L305.1,140.8z"/>
	<path fill-rule="evenodd" clip-rule="evenodd" fill="#9FBF39" d="M319.3,131.6c0-1.3-0.9-2-2.3-2h-3v4h3
		C318.5,133.6,319.3,132.8,319.3,131.6L319.3,131.6L319.3,131.6z M319.3,140.8l-2.9-4.5H314v4.5h-3v-14h6.2c3.2,0,5.1,1.7,5.1,4.6v0
		c0,2.3-1.2,3.7-2.9,4.4l3.3,5H319.3L319.3,140.8z"/>
	<polygon fill-rule="evenodd" clip-rule="evenodd" fill="#9FBF39" points="331.9,129.6 331.9,140.8 328.9,140.8 328.9,129.6 
		324.8,129.6 324.8,126.8 336,126.8 336,129.6 331.9,129.6 	"/>
	<path fill-rule="evenodd" clip-rule="evenodd" fill="#9FBF39" d="M349.1,133.8c0-2.4-1.7-4.4-4.1-4.4c-2.4,0-4.1,2-4.1,4.4v0
		c0,2.4,1.7,4.4,4.1,4.4C347.5,138.2,349.1,136.2,349.1,133.8L349.1,133.8L349.1,133.8z M345,141c-4.2,0-7.2-3.2-7.2-7.2l0,0
		c0-4,3-7.3,7.2-7.3c4.2,0,7.2,3.2,7.2,7.2v0C352.3,137.8,349.2,141,345,141L345,141z"/>
	<path fill-rule="evenodd" clip-rule="evenodd" fill="#323347" d="M195.7,89.3c1.4,0,2.3-0.8,2.3-1.9l0,0c0-1.3-0.9-1.9-2.3-1.9
		h-1.9v3.9H195.7L195.7,89.3z M189.8,81.9h6.2c3.6,0,6,1.9,6,5.2v0c0,3.5-2.6,5.3-6.2,5.3h-2v4.2h-4V81.9L189.8,81.9z"/>
	<path fill-rule="evenodd" clip-rule="evenodd" fill="#323347" d="M210.9,89.1c1.4,0,2.1-0.7,2.1-1.8l0,0c0-1.2-0.8-1.8-2.2-1.8
		h-2.6v3.6H210.9L210.9,89.1z M204.3,81.9h6.8c2.2,0,3.7,0.6,4.7,1.6c0.8,0.8,1.3,2,1.3,3.5v0c0,2.3-1.2,3.8-3,4.6l3.4,5.2h-4.6
		l-2.9-4.5h0h-1.7v4.5h-4V81.9L204.3,81.9z"/>
	<polygon fill-rule="evenodd" clip-rule="evenodd" fill="#323347" points="219.6,81.9 231.1,81.9 231.1,85.4 223.5,85.4 223.5,87.7 
		230.4,87.7 230.4,90.9 223.5,90.9 223.5,93.3 231.3,93.3 231.3,96.8 219.6,96.8 219.6,81.9 	"/>
	<path fill-rule="evenodd" clip-rule="evenodd" fill="#323347" d="M232.8,94.6l2.2-2.7c1.4,1.2,3,1.8,4.7,1.8c1.1,0,1.6-0.4,1.6-1v0
		c0-0.6-0.5-1-2.4-1.4c-3.1-0.7-5.4-1.6-5.4-4.7l0,0c0-2.8,2.1-4.7,5.6-4.7c2.4,0,4.3,0.7,5.9,2l-2,2.9c-1.3-1-2.7-1.5-4-1.5
		c-1,0-1.4,0.4-1.4,1v0c0,0.7,0.5,1,2.5,1.4c3.3,0.7,5.4,1.8,5.4,4.6v0c0,3-2.3,4.8-5.8,4.8C237,97,234.6,96.2,232.8,94.6
		L232.8,94.6z"/>
	<path fill-rule="evenodd" clip-rule="evenodd" fill="#323347" d="M247.7,90.3v-8.3h4v8.2c0,2.1,1,3.2,2.6,3.2c1.6,0,2.6-1,2.6-3.1
		v-8.3h4v8.2c0,4.8-2.6,6.9-6.7,6.9C250.2,97,247.7,94.9,247.7,90.3L247.7,90.3z"/>
	<path fill-rule="evenodd" clip-rule="evenodd" fill="#323347" d="M269.9,89.3c1.4,0,2.3-0.8,2.3-1.9v0c0-1.3-0.9-1.9-2.3-1.9H268
		v3.9H269.9L269.9,89.3z M264,81.9h6.2c3.6,0,6,1.9,6,5.2l0,0c0,3.5-2.6,5.3-6.2,5.3h-2v4.2h-4V81.9L264,81.9z"/>
	<path fill-rule="evenodd" clip-rule="evenodd" fill="#323347" d="M278.2,90.3v-8.3h4v8.2c0,2.1,1,3.2,2.6,3.2c1.6,0,2.6-1,2.6-3.1
		l0-8.3h4v8.2c0,4.8-2.6,6.9-6.7,6.9C280.8,97,278.2,94.9,278.2,90.3L278.2,90.3z"/>
	<polygon fill-rule="evenodd" clip-rule="evenodd" fill="#323347" points="294.6,81.9 306.1,81.9 306.1,85.4 298.5,85.4 298.5,87.7 
		305.4,87.7 305.4,90.9 298.5,90.9 298.5,93.3 306.2,93.3 306.2,96.8 294.6,96.8 294.6,81.9 	"/>
	<path fill-rule="evenodd" clip-rule="evenodd" fill="#323347" d="M307.8,94.6l2.2-2.7c1.4,1.2,3,1.8,4.7,1.8c1.1,0,1.6-0.4,1.6-1v0
		c0-0.6-0.5-1-2.4-1.4c-3.1-0.7-5.4-1.6-5.4-4.7v0c0-2.8,2.1-4.7,5.6-4.7c2.4,0,4.3,0.7,5.9,2l-2,2.9c-1.3-1-2.7-1.5-4-1.5
		c-1,0-1.4,0.4-1.4,1v0c0,0.7,0.5,1,2.5,1.4c3.3,0.7,5.4,1.8,5.4,4.6v0c0,3-2.3,4.8-5.8,4.8C312,97,309.5,96.2,307.8,94.6
		L307.8,94.6z"/>
	<polygon fill-rule="evenodd" clip-rule="evenodd" fill="#323347" points="325.9,85.5 321.6,85.5 321.6,81.9 334.2,81.9 334.2,85.5 
		329.9,85.5 329.9,96.8 325.9,96.8 325.9,85.5 	"/>
	<path fill-rule="evenodd" clip-rule="evenodd" fill="#323347" d="M346.9,89.4L346.9,89.4c0-2.2-1.5-4-3.7-4c-2.2,0-3.6,1.8-3.6,4v0
		c0,2.1,1.5,4,3.7,4C345.4,93.4,346.9,91.5,346.9,89.4L346.9,89.4L346.9,89.4z M335.5,89.4L335.5,89.4c0-4.3,3.3-7.8,7.7-7.8
		c4.4,0,7.7,3.4,7.7,7.7v0c0,4.3-3.3,7.7-7.8,7.7C338.7,97.1,335.5,93.6,335.5,89.4L335.5,89.4z"/>
	<path fill-rule="evenodd" clip-rule="evenodd" fill="#323347" d="M195.7,109.1c1.4,0,2.3-0.8,2.3-1.9l0,0c0-1.3-0.9-2-2.3-2h-1.9
		v3.9H195.7L195.7,109.1z M189.8,101.7h6.2c3.6,0,6,1.9,6,5.2v0c0,3.5-2.6,5.3-6.2,5.3h-2v4.2h-4V101.7L189.8,101.7z"/>
	<path fill-rule="evenodd" clip-rule="evenodd" fill="#323347" d="M210.7,110.7l-1.6-4.2l-1.6,4.2H210.7L210.7,110.7z M207.2,101.6
		h3.8l6.1,14.9h-4.3l-1-2.6h-5.5l-1,2.6h-4.2L207.2,101.6L207.2,101.6z"/>
	<path fill-rule="evenodd" clip-rule="evenodd" fill="#323347" d="M225.1,108.8c1.4,0,2.1-0.7,2.1-1.8v0c0-1.2-0.8-1.8-2.2-1.8h-2.6
		v3.6H225.1L225.1,108.8z M218.5,101.7h6.8c2.2,0,3.7,0.6,4.7,1.6c0.8,0.8,1.3,2,1.3,3.5v0c0,2.3-1.2,3.8-3,4.6l3.4,5.2h-4.6
		l-2.9-4.5h0h-1.7v4.5h-4V101.7L218.5,101.7z"/>
	<polygon fill-rule="evenodd" clip-rule="evenodd" fill="#323347" points="236.7,105.3 232.4,105.3 232.4,101.7 245,101.7 
		245,105.3 240.7,105.3 240.7,116.5 236.7,116.5 236.7,105.3 	"/>
	<polygon fill-rule="evenodd" clip-rule="evenodd" fill="#323347" points="246.8,101.7 250.8,101.7 250.8,116.5 246.8,116.5 
		246.8,101.7 	"/>
	<path fill-rule="evenodd" clip-rule="evenodd" fill="#323347" d="M253,109.2L253,109.2c0-4.4,3.2-7.8,7.6-7.8
		c2.9,0,4.8,1.3,6.1,3.1l-3,2.4c-0.8-1.1-1.8-1.7-3.1-1.7c-2,0-3.4,1.8-3.4,3.9v0c0,2.2,1.4,4,3.4,4c1.5,0,2.4-0.7,3.2-1.8l3,2.2
		c-1.4,1.9-3.2,3.3-6.4,3.3C256.3,116.8,253,113.6,253,109.2L253,109.2z"/>
	<polygon fill-rule="evenodd" clip-rule="evenodd" fill="#323347" points="268.5,101.7 272.5,101.7 272.5,116.5 268.5,116.5 
		268.5,101.7 	"/>
	<path fill-rule="evenodd" clip-rule="evenodd" fill="#323347" d="M281,109.1c1.4,0,2.3-0.8,2.3-1.9l0,0c0-1.3-0.9-2-2.3-2h-1.9v3.9
		H281L281,109.1z M275.1,101.7h6.2c3.6,0,6,1.9,6,5.2v0c0,3.5-2.6,5.3-6.2,5.3h-2v4.2h-4V101.7L275.1,101.7z"/>
	<path fill-rule="evenodd" clip-rule="evenodd" fill="#323347" d="M295.9,110.7l-1.6-4.2l-1.6,4.2H295.9L295.9,110.7z M292.4,101.6
		h3.8l6.1,14.9h-4.3l-1-2.6h-5.5l-1,2.6h-4.2L292.4,101.6L292.4,101.6z"/>
	<polygon fill-rule="evenodd" clip-rule="evenodd" fill="#323347" points="305.4,105.3 301.1,105.3 301.1,101.7 313.7,101.7 
		313.7,105.3 309.4,105.3 309.4,116.5 305.4,116.5 305.4,105.3 	"/>
	<polygon fill-rule="evenodd" clip-rule="evenodd" fill="#323347" points="315.5,101.7 319.5,101.7 319.5,116.5 315.5,116.5 
		315.5,101.7 	"/>
	<polygon fill-rule="evenodd" clip-rule="evenodd" fill="#323347" points="321,101.7 325.5,101.7 328.7,111.1 332,101.7 
		336.3,101.7 330.5,116.6 326.8,116.6 321,101.7 	"/>
	<path fill-rule="evenodd" clip-rule="evenodd" fill="#323347" d="M347.7,109.2L347.7,109.2c0-2.2-1.5-4-3.7-4c-2.2,0-3.6,1.8-3.6,4
		l0,0c0,2.1,1.5,4,3.7,4C346.3,113.1,347.7,111.3,347.7,109.2L347.7,109.2L347.7,109.2z M336.3,109.2L336.3,109.2
		c0-4.3,3.3-7.8,7.7-7.8c4.4,0,7.7,3.4,7.7,7.7v0c0,4.3-3.3,7.7-7.8,7.7C339.6,116.8,336.3,113.4,336.3,109.2L336.3,109.2z"/>
	<path fill-rule="evenodd" clip-rule="evenodd" fill="#90C1E9" d="M70.3,64.1L70.3,64.1l-2.4-2c-0.3,0-0.5,0-0.8,0
		c-2,0-4.1-0.6-5.9-1.9c-1.8-1.3-3.2-3.1-3.9-5.1c3.3-1.7,6.3-4.2,8.5-7.6c1.3-2,2.3-4.2,2.9-6.5c1.4,0.3,2.7,0.8,4,1.7
		c4.7,3.3,6,9.9,2.8,14.8c-1.2,1.9-3,3.2-4.9,3.9L70.3,64.1L70.3,64.1z"/>
	<path fill-rule="evenodd" clip-rule="evenodd" fill="#414053" d="M123.1,69.2L123.1,69.2l-0.2-1.9c-1.4-0.5-2.6-1.5-3.5-2.9
		c-2.2-3.5-1.2-8.3,2.2-10.6c1.3-0.9,2.7-1.3,4.1-1.3c2.4,0,4.8,1.2,6.2,3.4c2.2,3.5,1.2,8.3-2.2,10.6c-1.3,0.9-2.7,1.3-4.1,1.3
		c-0.2,0-0.5,0-0.7,0L123.1,69.2L123.1,69.2z"/>
	<path fill-rule="evenodd" clip-rule="evenodd" fill="#9FBF39" d="M28.6,67.9L28.6,67.9L25,64.8c-0.4,0-0.8,0-1.2,0
		c-3.1,0-6.3-0.9-9.1-2.9c-4.5-3.1-6.9-8.2-7-13.3V48c0.1-3,0.9-6,2.7-8.6c3-4.5,7.9-7,12.9-7c0.5,0,1.1,0,1.6,0.1
		c0,0.4,0,0.8-0.1,1.3v0.7c0.1,7.3,3.6,14.4,9.9,18.9c1,0.7,2.1,1.4,3.2,1.9c-0.4,0.9-0.8,1.8-1.4,2.6c-1.9,2.9-4.5,4.9-7.5,6
		L28.6,67.9L28.6,67.9z"/>
	<path fill-rule="evenodd" clip-rule="evenodd" fill="#9FBF39" d="M157.7,80.2c3.2,0,5.7-2.7,5.7-5.9c0-3.3-2.6-5.9-5.7-5.9
		c-3.2,0-5.7,2.7-5.7,5.9C152,77.5,154.6,80.2,157.7,80.2L157.7,80.2z"/>
	<path fill-rule="evenodd" clip-rule="evenodd" fill="#9FBF39" d="M170.4,98.7l0-0.3L167.8,84c-0.2-1.4-1.3-2.3-2.6-2.3h-14.7
		c-1.3,0-2.4,1-2.6,2.3l-2.6,14.5l0,0.3c0,0.1,0,0.3,0,0.4c0,1.5,1.2,2.8,2.7,2.8c1.3,0,2.4-1,2.6-2.3l1.7-10.7l0,34.3
		c0,1.5,1.2,2.8,2.7,2.8c1.5,0,2.7-1.2,2.7-2.8v-17h0.6v17c0,1.5,1.2,2.8,2.7,2.8c1.5,0,2.7-1.2,2.7-2.8l0-34.3l1.7,10.8
		c0.2,1.3,1.3,2.3,2.6,2.3c1.5,0,2.7-1.2,2.7-2.8C170.4,99,170.4,98.9,170.4,98.7L170.4,98.7z"/>
	<path fill-rule="evenodd" clip-rule="evenodd" fill="#323347" d="M118.9,80.4c3.3,0,5.9-2.8,5.9-6.1c0-3.4-2.7-6.1-5.9-6.1
		c-3.3,0-5.9,2.8-5.9,6.1C113,77.7,115.7,80.4,118.9,80.4L118.9,80.4z"/>
	<path fill-rule="evenodd" clip-rule="evenodd" fill="#323347" d="M132,99.6c0-0.1,0-0.2,0-0.4l-2.7-15c-0.2-1.4-1.4-2.4-2.7-2.4
		h-15.2c-1.4,0-2.5,1-2.7,2.4l-2.7,15c0,0.1,0,0.2,0,0.4c0,0.1,0,0.3,0,0.4c0,1.6,1.2,2.9,2.8,2.9c1.3,0,2.5-1,2.7-2.4l1.7-11.1
		l0,35.5c0,1.6,1.2,2.9,2.8,2.9c1.5,0,2.8-1.3,2.8-2.9l0-17.6h0.7v17.6c0,1.6,1.2,2.9,2.8,2.9c1.5,0,2.8-1.3,2.8-2.9l0-35.5
		l1.7,11.1c0.2,1.4,1.4,2.4,2.7,2.4c1.5,0,2.8-1.3,2.8-2.9C132,99.9,132,99.8,132,99.6L132,99.6z"/>
	<path fill-rule="evenodd" clip-rule="evenodd" fill="#7FB9E6" d="M73,80.4c3.3,0,5.9-2.8,5.9-6.1c0-3.4-2.7-6.1-5.9-6.1
		c-3.3,0-5.9,2.8-5.9,6.1C67,77.7,69.7,80.4,73,80.4L73,80.4z"/>
	<path fill-rule="evenodd" clip-rule="evenodd" fill="#7FB9E6" d="M86.1,99.6c0-0.1,0-0.2,0-0.4l-2.7-15c-0.2-1.4-1.4-2.4-2.7-2.4
		H65.4c-1.4,0-2.5,1-2.7,2.4l-2.7,15c0,0.1,0,0.2,0,0.4c0,0.1,0,0.3,0,0.4c0,1.6,1.2,2.9,2.8,2.9c1.3,0,2.5-1,2.7-2.4l1.7-11.1
		l0,35.5c0,1.6,1.2,2.9,2.8,2.9c1.5,0,2.8-1.3,2.8-2.9v-17.6h0.7v17.6c0,1.6,1.2,2.9,2.8,2.9c1.5,0,2.8-1.3,2.8-2.9l0-35.5l1.7,11.1
		c0.2,1.4,1.4,2.4,2.7,2.4c1.5,0,2.8-1.3,2.8-2.9C86.1,99.9,86.1,99.8,86.1,99.6L86.1,99.6z"/>
	<path fill-rule="evenodd" clip-rule="evenodd" fill="#9FBF39" d="M34.6,81.1c3.2,0,5.7-2.7,5.7-5.9c0-3.3-2.6-5.9-5.7-5.9
		c-3.2,0-5.7,2.7-5.7,5.9C28.9,78.4,31.4,81.1,34.6,81.1L34.6,81.1z"/>
	<path fill-rule="evenodd" clip-rule="evenodd" fill="#9FBF39" d="M47.2,99.6c0-0.1,0-0.2,0-0.3l-2.6-14.4c-0.2-1.4-1.3-2.3-2.6-2.3
		H27.3c-1.3,0-2.4,1-2.6,2.3L22,99.3c0,0.1,0,0.2,0,0.3c0,0.1,0,0.3,0,0.4c0,1.5,1.2,2.8,2.7,2.8c1.3,0,2.4-1,2.6-2.3l1.7-10.7
		l0,34.3c0,1.5,1.2,2.8,2.7,2.8c1.5,0,2.7-1.2,2.7-2.8v-17h0.6v17c0,1.5,1.2,2.8,2.7,2.8c1.5,0,2.7-1.2,2.7-2.8l0-34.3l1.7,10.8
		c0.2,1.3,1.3,2.3,2.6,2.3c1.5,0,2.7-1.2,2.7-2.8C47.3,99.9,47.2,99.7,47.2,99.6L47.2,99.6z"/>
	<path fill-rule="evenodd" clip-rule="evenodd" fill="#7FB9E6" d="M138.6,81.2c4.3,0,7.8-3.6,7.8-8c0-4.4-3.5-8-7.8-8
		c-4.3,0-7.8,3.6-7.8,8C130.8,77.6,134.3,81.2,138.6,81.2L138.6,81.2z"/>
	<path fill-rule="evenodd" clip-rule="evenodd" fill="#7FB9E6" d="M155.7,106.3c0-0.1,0.1-0.3,0-0.5l-3.6-19.5
		c-0.3-1.8-1.8-3.2-3.6-3.2h-19.9c-1.8,0-3.3,1.3-3.6,3.1l-3.6,19.6c0,0.2,0,0.3,0,0.5c0,0.2,0,0.3,0,0.5c0,2.1,1.6,3.8,3.6,3.8
		c1.7,0,3.2-1.3,3.6-3.1l2.2-14.5l0,46.4c0,2.1,1.6,3.8,3.6,3.8c2,0,3.6-1.7,3.6-3.8v-22.9h0.9v22.9c0,2.1,1.6,3.8,3.6,3.8
		c2,0,3.6-1.7,3.6-3.8l0-46.4l2.3,14.5c0.3,1.8,1.8,3.1,3.6,3.1c2,0,3.6-1.7,3.6-3.8C155.7,106.6,155.7,106.5,155.7,106.3
		L155.7,106.3z"/>
	<path fill-rule="evenodd" clip-rule="evenodd" fill="#323347" d="M57.9,79.8c4.3,0,7.8-3.6,7.8-8c0-4.4-3.5-8-7.8-8
		c-4.3,0-7.8,3.6-7.8,8C50.2,76.2,53.6,79.8,57.9,79.8L57.9,79.8z"/>
	<path fill-rule="evenodd" clip-rule="evenodd" fill="#323347" d="M75,104.9c0-0.1,0.1-0.3,0-0.5l-3.6-19.5
		c-0.3-1.8-1.8-3.2-3.6-3.2H48c-1.8,0-3.3,1.3-3.6,3.1l-3.6,19.6c0,0.2,0,0.3,0,0.5c0,0.2,0,0.3,0,0.5c0,2.1,1.6,3.8,3.6,3.8
		c1.8,0,3.2-1.3,3.6-3.1l2.2-14.5l0,46.4c0,2.1,1.6,3.8,3.6,3.8c2,0,3.6-1.7,3.6-3.8v-22.9h0.9v22.9c0,2.1,1.6,3.8,3.6,3.8
		c2,0,3.6-1.7,3.6-3.8l0-46.4l2.2,14.5c0.3,1.8,1.8,3.1,3.6,3.1c2,0,3.6-1.7,3.6-3.8C75,105.2,75,105,75,104.9L75,104.9z"/>
	<path fill-rule="evenodd" clip-rule="evenodd" fill="#9FBF39" d="M98.1,76.3c4.8,0,8.8-4.1,8.8-9.1c0-5-3.9-9.1-8.8-9.1
		c-4.8,0-8.8,4.1-8.8,9.1C89.3,72.3,93.3,76.3,98.1,76.3L98.1,76.3z"/>
	<path fill-rule="evenodd" clip-rule="evenodd" fill="#9FBF39" d="M117.3,104.7c0.1-0.2,0.1-0.3,0-0.5l-4-22c-0.3-2.1-2-3.6-4-3.6
		H86.9c-2,0-3.7,1.5-4,3.5l-4,22.1c0,0.2,0,0.4,0,0.5c0,0.2,0,0.4,0,0.6c0,2.3,1.8,4.2,4.1,4.2c2,0,3.7-1.5,4-3.5l2.5-16.4l0,52.3
		c0,2.3,1.8,4.2,4.1,4.2c2.3,0,4.1-1.9,4.1-4.2V116h1v25.9c0,2.3,1.8,4.2,4.1,4.2c2.3,0,4.1-1.9,4.1-4.2l0-52.3l2.5,16.4
		c0.4,2,2,3.5,4,3.5c2.3,0,4.1-1.9,4.1-4.2C117.4,105.1,117.4,104.9,117.3,104.7L117.3,104.7z"/>
	<path fill-rule="evenodd" clip-rule="evenodd" fill="#9FBF39" d="M164.8,66.8L164.8,66.8l0.2-4c-0.7-0.4-1.4-1-2-1.5c0,0,0,0,0,0
		c7.9-3.4,12.7-11.2,12.9-19.4V41c0-2.5-0.5-5-1.4-7.4c5.6,0.4,10.7,4,13,9.6c3.2,8-0.5,17.3-8.3,20.7c-2,0.8-4,1.2-6,1.2
		c-1.5,0-2.9-0.2-4.2-0.6L164.8,66.8L164.8,66.8z"/>
	<path fill-rule="evenodd" clip-rule="evenodd" fill="#9FBF39" d="M105.6,59.6L105.6,59.6l-1.6-6.1c-4.7-1.2-9.2-3.8-12.6-7.9
		c-8.8-10.4-7.6-26.4,2.6-35.6c4.7-4.2,10.4-6.3,16.2-6.3c6.8,0,13.5,2.9,18.3,8.6c8.8,10.4,7.6,26.4-2.6,35.6
		c-4.4,4-9.8,6-15.1,6.2L105.6,59.6L105.6,59.6z"/>
	<path fill-rule="evenodd" clip-rule="evenodd" fill="#414053" d="M54.4,61.7L54.4,61.7l-5.1-4.4c-0.6,0-1.1,0.1-1.7,0.1
		c-3.2,0-6.5-0.7-9.5-2.2c0.8-1.9,1.2-4,1.3-6v-0.6c-0.1-5.1-2.5-10.2-7-13.3c-2.3-1.6-4.8-2.5-7.4-2.8c0.3-3.8,1.5-7.6,3.7-11
		c4.2-6.4,11.1-9.8,18.1-9.9h0.3c4.3,0,8.7,1.3,12.6,4.1c6.4,4.5,9.9,11.8,9.9,19.2V35c0,2-0.3,4.1-0.8,6.1
		c-0.6-0.1-1.2-0.2-1.8-0.2h-0.2c-3.2,0-6.4,1.6-8.3,4.6c-1.1,1.7-1.7,3.6-1.7,5.5v0.7c0,1.2,0.3,2.4,0.7,3.5
		c-0.7,0.4-1.4,0.7-2.1,0.9L54.4,61.7L54.4,61.7z"/>
	<path fill-rule="evenodd" clip-rule="evenodd" fill="#3A3C52" d="M57.4,55.1c-0.4-1.1-0.6-2.3-0.7-3.5V51c0.1-1.9,0.6-3.8,1.7-5.5
		c1.9-2.9,5.1-4.5,8.3-4.6H67c0.6,0,1.2,0.1,1.8,0.2c-0.6,2.3-1.6,4.5-2.9,6.5C63.6,50.9,60.7,53.5,57.4,55.1L57.4,55.1z"/>
	<path fill-rule="evenodd" clip-rule="evenodd" fill="#393D31" d="M38.1,55.3c-1.1-0.5-2.2-1.2-3.2-1.9c-6.3-4.5-9.8-11.6-9.9-18.9
		v-0.7c0-0.4,0-0.8,0.1-1.3c2.6,0.3,5.1,1.2,7.4,2.8c4.5,3.2,6.9,8.2,7,13.3v0.6C39.3,51.3,38.9,53.3,38.1,55.3L38.1,55.3z"/>
	<path fill-rule="evenodd" clip-rule="evenodd" fill="#90C1E9" d="M143.7,65.1L143.7,65.1l0.3-5.4c-3.5-2.2-6.4-5.6-8.2-9.9
		c-1-2.5-1.5-5.1-1.6-7.7v-0.9c0.2-8.2,5-16,12.9-19.4c2.7-1.1,5.4-1.7,8.1-1.7c8.1,0,15.8,4.9,19.1,13.1c0,0.1,0.1,0.2,0.1,0.4
		c-0.3,0-0.5,0-0.8,0h-0.7c-1.9,0-3.8,0.5-5.6,1.2c-7.9,3.4-11.6,12.7-8.3,20.7c0.9,2.3,2.3,4.2,4,5.8c-2.6,1.1-5.4,1.7-8.1,1.7
		c-2,0-3.9-0.3-5.8-0.8L143.7,65.1L143.7,65.1z"/>
	<path fill-rule="evenodd" clip-rule="evenodd" fill="#659B4F" d="M162.9,61.3c-1.7-1.5-3.1-3.5-4-5.8c-3.3-8,0.5-17.3,8.3-20.7
		c1.8-0.8,3.7-1.2,5.6-1.2h0.7c0.3,0,0.5,0,0.8,0c0.9,2.4,1.4,4.9,1.4,7.4v0.9C175.7,50.1,170.9,57.9,162.9,61.3
		C163,61.3,163,61.3,162.9,61.3L162.9,61.3z"/>
	<polygon fill-rule="evenodd" clip-rule="evenodd" fill="#9BC5EA" points="190.9,124.7 197.5,124.7 202.6,132.6 195.9,132.6 
		190.9,124.7 	"/>
	<polygon fill-rule="evenodd" clip-rule="evenodd" fill="#7FB9E6" points="190.9,140.4 197.5,140.4 202.6,132.6 195.9,132.6 
		190.9,140.4 	"/>
	<polygon fill-rule="evenodd" clip-rule="evenodd" fill="#7AA43A" points="212.9,132.6 206.3,132.6 201.2,124.7 207.8,124.7 
		212.9,132.6 	"/>
	<polygon fill-rule="evenodd" clip-rule="evenodd" fill="#9FBF39" points="201.2,140.4 207.8,140.4 212.9,132.6 206.3,132.6 
		201.2,140.4 	"/>
	<path fill-rule="evenodd" clip-rule="evenodd" fill="#9FBF39" d="M227.7,131.6c0-1.3-0.9-2-2.3-2h-3v4h3
		C226.9,133.6,227.7,132.8,227.7,131.6L227.7,131.6L227.7,131.6z M227.7,140.8l-2.9-4.5h-2.3v4.5h-3v-14h6.2c3.2,0,5.1,1.7,5.1,4.6
		v0c0,2.3-1.2,3.7-2.9,4.4l3.3,5H227.7L227.7,140.8z"/>
	<path fill-rule="evenodd" clip-rule="evenodd" fill="#9FBF39" d="M234.5,125.7l2.2-3.5l2.5,1.1l-2.5,2.4H234.5L234.5,125.7z
		 M234.3,126.8h3v14h-3V126.8L234.3,126.8z"/>
	<path fill-rule="evenodd" clip-rule="evenodd" fill="#9FBF39" d="M252.1,133.8c0-2.4-1.7-4.4-4.1-4.4c-2.4,0-4.1,2-4.1,4.4v0
		c0,2.4,1.7,4.4,4.1,4.4C250.4,138.2,252.1,136.2,252.1,133.8L252.1,133.8L252.1,133.8z M248,141c-4.2,0-7.2-3.2-7.2-7.2l0,0
		c0-4,3-7.3,7.2-7.3c4.2,0,7.2,3.2,7.2,7.2v0C255.2,137.8,252.1,141,248,141L248,141z"/>
	<path fill-rule="evenodd" clip-rule="evenodd" fill="#9FBF39" d="M271.4,141c-4,0-7-3.2-7-7.2v0c0-4,2.9-7.3,7.1-7.3
		c2.6,0,4.1,0.9,5.4,2.2L275,131c-1-1-2.1-1.6-3.5-1.6c-2.3,0-3.9,2-3.9,4.4l0,0c0,2.4,1.6,4.4,3.9,4.4c1.6,0,2.5-0.6,3.6-1.6l1.9,2
		C275.6,140.1,274.1,141,271.4,141L271.4,141z"/>
	<path fill-rule="evenodd" clip-rule="evenodd" fill="#9FBF39" d="M285.8,141c-3.6,0-5.9-2.1-5.9-6.2l0-8h3v7.9
		c0,2.3,1.1,3.5,2.9,3.5c1.8,0,2.9-1.1,2.9-3.4v-8h3v7.9C291.7,138.9,289.4,141,285.8,141L285.8,141z"/>
	<path fill-rule="evenodd" clip-rule="evenodd" fill="#9FBF39" d="M301,130.4l-1.8,4.6h3.6L301,130.4L301,130.4z M305.1,140.8
		l-1.2-3.1h-5.7l-1.2,3.1h-3l5.8-14.1h2.8l5.8,14.1H305.1L305.1,140.8z"/>
	<path fill-rule="evenodd" clip-rule="evenodd" fill="#9FBF39" d="M319.3,131.6c0-1.3-0.9-2-2.3-2h-3v4h3
		C318.5,133.6,319.3,132.8,319.3,131.6L319.3,131.6L319.3,131.6z M319.3,140.8l-2.9-4.5H314v4.5h-3v-14h6.2c3.2,0,5.1,1.7,5.1,4.6v0
		c0,2.3-1.2,3.7-2.9,4.4l3.3,5H319.3L319.3,140.8z"/>
	<polygon fill-rule="evenodd" clip-rule="evenodd" fill="#9FBF39" points="331.9,129.6 331.9,140.8 328.9,140.8 328.9,129.6 
		324.8,129.6 324.8,126.8 336,126.8 336,129.6 331.9,129.6 	"/>
	<path fill-rule="evenodd" clip-rule="evenodd" fill="#9FBF39" d="M349.1,133.8c0-2.4-1.7-4.4-4.1-4.4c-2.4,0-4.1,2-4.1,4.4v0
		c0,2.4,1.7,4.4,4.1,4.4C347.5,138.2,349.1,136.2,349.1,133.8L349.1,133.8L349.1,133.8z M345,141c-4.2,0-7.2-3.2-7.2-7.2l0,0
		c0-4,3-7.3,7.2-7.3c4.2,0,7.2,3.2,7.2,7.2v0C352.3,137.8,349.2,141,345,141L345,141z"/>
	<path fill-rule="evenodd" clip-rule="evenodd" fill="#323347" d="M195.7,89.3c1.4,0,2.3-0.8,2.3-1.9l0,0c0-1.3-0.9-1.9-2.3-1.9
		h-1.9v3.9H195.7L195.7,89.3z M189.8,81.9h6.2c3.6,0,6,1.9,6,5.2v0c0,3.5-2.6,5.3-6.2,5.3h-2v4.2h-4V81.9L189.8,81.9z"/>
	<path fill-rule="evenodd" clip-rule="evenodd" fill="#323347" d="M210.9,89.1c1.4,0,2.1-0.7,2.1-1.8l0,0c0-1.2-0.8-1.8-2.2-1.8
		h-2.6v3.6H210.9L210.9,89.1z M204.3,81.9h6.8c2.2,0,3.7,0.6,4.7,1.6c0.8,0.8,1.3,2,1.3,3.5v0c0,2.3-1.2,3.8-3,4.6l3.4,5.2h-4.6
		l-2.9-4.5h0h-1.7v4.5h-4V81.9L204.3,81.9z"/>
	<polygon fill-rule="evenodd" clip-rule="evenodd" fill="#323347" points="219.6,81.9 231.1,81.9 231.1,85.4 223.5,85.4 223.5,87.7 
		230.4,87.7 230.4,90.9 223.5,90.9 223.5,93.3 231.3,93.3 231.3,96.8 219.6,96.8 219.6,81.9 	"/>
	<path fill-rule="evenodd" clip-rule="evenodd" fill="#323347" d="M232.8,94.6l2.2-2.7c1.4,1.2,3,1.8,4.7,1.8c1.1,0,1.6-0.4,1.6-1v0
		c0-0.6-0.5-1-2.4-1.4c-3.1-0.7-5.4-1.6-5.4-4.7l0,0c0-2.8,2.1-4.7,5.6-4.7c2.4,0,4.3,0.7,5.9,2l-2,2.9c-1.3-1-2.7-1.5-4-1.5
		c-1,0-1.4,0.4-1.4,1v0c0,0.7,0.5,1,2.5,1.4c3.3,0.7,5.4,1.8,5.4,4.6v0c0,3-2.3,4.8-5.8,4.8C237,97,234.6,96.2,232.8,94.6
		L232.8,94.6z"/>
	<path fill-rule="evenodd" clip-rule="evenodd" fill="#323347" d="M247.7,90.3v-8.3h4v8.2c0,2.1,1,3.2,2.6,3.2c1.6,0,2.6-1,2.6-3.1
		v-8.3h4v8.2c0,4.8-2.6,6.9-6.7,6.9C250.2,97,247.7,94.9,247.7,90.3L247.7,90.3z"/>
	<path fill-rule="evenodd" clip-rule="evenodd" fill="#323347" d="M269.9,89.3c1.4,0,2.3-0.8,2.3-1.9v0c0-1.3-0.9-1.9-2.3-1.9H268
		v3.9H269.9L269.9,89.3z M264,81.9h6.2c3.6,0,6,1.9,6,5.2l0,0c0,3.5-2.6,5.3-6.2,5.3h-2v4.2h-4V81.9L264,81.9z"/>
	<path fill-rule="evenodd" clip-rule="evenodd" fill="#323347" d="M278.2,90.3v-8.3h4v8.2c0,2.1,1,3.2,2.6,3.2c1.6,0,2.6-1,2.6-3.1
		l0-8.3h4v8.2c0,4.8-2.6,6.9-6.7,6.9C280.8,97,278.2,94.9,278.2,90.3L278.2,90.3z"/>
	<polygon fill-rule="evenodd" clip-rule="evenodd" fill="#323347" points="294.6,81.9 306.1,81.9 306.1,85.4 298.5,85.4 298.5,87.7 
		305.4,87.7 305.4,90.9 298.5,90.9 298.5,93.3 306.2,93.3 306.2,96.8 294.6,96.8 294.6,81.9 	"/>
	<path fill-rule="evenodd" clip-rule="evenodd" fill="#323347" d="M307.8,94.6l2.2-2.7c1.4,1.2,3,1.8,4.7,1.8c1.1,0,1.6-0.4,1.6-1v0
		c0-0.6-0.5-1-2.4-1.4c-3.1-0.7-5.4-1.6-5.4-4.7v0c0-2.8,2.1-4.7,5.6-4.7c2.4,0,4.3,0.7,5.9,2l-2,2.9c-1.3-1-2.7-1.5-4-1.5
		c-1,0-1.4,0.4-1.4,1v0c0,0.7,0.5,1,2.5,1.4c3.3,0.7,5.4,1.8,5.4,4.6v0c0,3-2.3,4.8-5.8,4.8C312,97,309.5,96.2,307.8,94.6
		L307.8,94.6z"/>
	<polygon fill-rule="evenodd" clip-rule="evenodd" fill="#323347" points="325.9,85.5 321.6,85.5 321.6,81.9 334.2,81.9 334.2,85.5 
		329.9,85.5 329.9,96.8 325.9,96.8 325.9,85.5 	"/>
	<path fill-rule="evenodd" clip-rule="evenodd" fill="#323347" d="M346.9,89.4L346.9,89.4c0-2.2-1.5-4-3.7-4c-2.2,0-3.6,1.8-3.6,4v0
		c0,2.1,1.5,4,3.7,4C345.4,93.4,346.9,91.5,346.9,89.4L346.9,89.4L346.9,89.4z M335.5,89.4L335.5,89.4c0-4.3,3.3-7.8,7.7-7.8
		c4.4,0,7.7,3.4,7.7,7.7v0c0,4.3-3.3,7.7-7.8,7.7C338.7,97.1,335.5,93.6,335.5,89.4L335.5,89.4z"/>
	<path fill-rule="evenodd" clip-rule="evenodd" fill="#323347" d="M195.7,109.1c1.4,0,2.3-0.8,2.3-1.9l0,0c0-1.3-0.9-2-2.3-2h-1.9
		v3.9H195.7L195.7,109.1z M189.8,101.7h6.2c3.6,0,6,1.9,6,5.2v0c0,3.5-2.6,5.3-6.2,5.3h-2v4.2h-4V101.7L189.8,101.7z"/>
	<path fill-rule="evenodd" clip-rule="evenodd" fill="#323347" d="M210.7,110.7l-1.6-4.2l-1.6,4.2H210.7L210.7,110.7z M207.2,101.6
		h3.8l6.1,14.9h-4.3l-1-2.6h-5.5l-1,2.6h-4.2L207.2,101.6L207.2,101.6z"/>
	<path fill-rule="evenodd" clip-rule="evenodd" fill="#323347" d="M225.1,108.8c1.4,0,2.1-0.7,2.1-1.8v0c0-1.2-0.8-1.8-2.2-1.8h-2.6
		v3.6H225.1L225.1,108.8z M218.5,101.7h6.8c2.2,0,3.7,0.6,4.7,1.6c0.8,0.8,1.3,2,1.3,3.5v0c0,2.3-1.2,3.8-3,4.6l3.4,5.2h-4.6
		l-2.9-4.5h0h-1.7v4.5h-4V101.7L218.5,101.7z"/>
	<polygon fill-rule="evenodd" clip-rule="evenodd" fill="#323347" points="236.7,105.3 232.4,105.3 232.4,101.7 245,101.7 
		245,105.3 240.7,105.3 240.7,116.5 236.7,116.5 236.7,105.3 	"/>
	<polygon fill-rule="evenodd" clip-rule="evenodd" fill="#323347" points="246.8,101.7 250.8,101.7 250.8,116.5 246.8,116.5 
		246.8,101.7 	"/>
	<path fill-rule="evenodd" clip-rule="evenodd" fill="#323347" d="M253,109.2L253,109.2c0-4.4,3.2-7.8,7.6-7.8
		c2.9,0,4.8,1.3,6.1,3.1l-3,2.4c-0.8-1.1-1.8-1.7-3.1-1.7c-2,0-3.4,1.8-3.4,3.9v0c0,2.2,1.4,4,3.4,4c1.5,0,2.4-0.7,3.2-1.8l3,2.2
		c-1.4,1.9-3.2,3.3-6.4,3.3C256.3,116.8,253,113.6,253,109.2L253,109.2z"/>
	<polygon fill-rule="evenodd" clip-rule="evenodd" fill="#323347" points="268.5,101.7 272.5,101.7 272.5,116.5 268.5,116.5 
		268.5,101.7 	"/>
	<path fill-rule="evenodd" clip-rule="evenodd" fill="#323347" d="M281,109.1c1.4,0,2.3-0.8,2.3-1.9l0,0c0-1.3-0.9-2-2.3-2h-1.9v3.9
		H281L281,109.1z M275.1,101.7h6.2c3.6,0,6,1.9,6,5.2v0c0,3.5-2.6,5.3-6.2,5.3h-2v4.2h-4V101.7L275.1,101.7z"/>
	<path fill-rule="evenodd" clip-rule="evenodd" fill="#323347" d="M295.9,110.7l-1.6-4.2l-1.6,4.2H295.9L295.9,110.7z M292.4,101.6
		h3.8l6.1,14.9h-4.3l-1-2.6h-5.5l-1,2.6h-4.2L292.4,101.6L292.4,101.6z"/>
	<polygon fill-rule="evenodd" clip-rule="evenodd" fill="#323347" points="305.4,105.3 301.1,105.3 301.1,101.7 313.7,101.7 
		313.7,105.3 309.4,105.3 309.4,116.5 305.4,116.5 305.4,105.3 	"/>
	<polygon fill-rule="evenodd" clip-rule="evenodd" fill="#323347" points="315.5,101.7 319.5,101.7 319.5,116.5 315.5,116.5 
		315.5,101.7 	"/>
	<polygon fill-rule="evenodd" clip-rule="evenodd" fill="#323347" points="321,101.7 325.5,101.7 328.7,111.1 332,101.7 
		336.3,101.7 330.5,116.6 326.8,116.6 321,101.7 	"/>
	<path fill-rule="evenodd" clip-rule="evenodd" fill="#323347" d="M347.7,109.2L347.7,109.2c0-2.2-1.5-4-3.7-4c-2.2,0-3.6,1.8-3.6,4
		l0,0c0,2.1,1.5,4,3.7,4C346.3,113.1,347.7,111.3,347.7,109.2L347.7,109.2L347.7,109.2z M336.3,109.2L336.3,109.2
		c0-4.3,3.3-7.8,7.7-7.8c4.4,0,7.7,3.4,7.7,7.7v0c0,4.3-3.3,7.7-7.8,7.7C339.6,116.8,336.3,113.4,336.3,109.2L336.3,109.2z"/>
	<path fill-rule="evenodd" clip-rule="evenodd" fill="#90C1E9" d="M70.3,64.1L70.3,64.1l-2.4-2c-0.3,0-0.5,0-0.8,0
		c-2,0-4.1-0.6-5.9-1.9c-1.8-1.3-3.2-3.1-3.9-5.1c3.3-1.7,6.3-4.2,8.5-7.6c1.3-2,2.3-4.2,2.9-6.5c1.4,0.3,2.7,0.8,4,1.7
		c4.7,3.3,6,9.9,2.8,14.8c-1.2,1.9-3,3.2-4.9,3.9L70.3,64.1L70.3,64.1z"/>
	<path fill-rule="evenodd" clip-rule="evenodd" fill="#414053" d="M123.1,69.2L123.1,69.2l-0.2-1.9c-1.4-0.5-2.6-1.5-3.5-2.9
		c-2.2-3.5-1.2-8.3,2.2-10.6c1.3-0.9,2.7-1.3,4.1-1.3c2.4,0,4.8,1.2,6.2,3.4c2.2,3.5,1.2,8.3-2.2,10.6c-1.3,0.9-2.7,1.3-4.1,1.3
		c-0.2,0-0.5,0-0.7,0L123.1,69.2L123.1,69.2z"/>
	<path fill-rule="evenodd" clip-rule="evenodd" fill="#9FBF39" d="M28.6,67.9L28.6,67.9L25,64.8c-0.4,0-0.8,0-1.2,0
		c-3.1,0-6.3-0.9-9.1-2.9c-4.5-3.1-6.9-8.2-7-13.3V48c0.1-3,0.9-6,2.7-8.6c3-4.5,7.9-7,12.9-7c0.5,0,1.1,0,1.6,0.1
		c0,0.4,0,0.8-0.1,1.3v0.7c0.1,7.3,3.6,14.4,9.9,18.9c1,0.7,2.1,1.4,3.2,1.9c-0.4,0.9-0.8,1.8-1.4,2.6c-1.9,2.9-4.5,4.9-7.5,6
		L28.6,67.9L28.6,67.9z"/>
	<path fill-rule="evenodd" clip-rule="evenodd" fill="#9FBF39" d="M157.7,80.2c3.2,0,5.7-2.7,5.7-5.9c0-3.3-2.6-5.9-5.7-5.9
		c-3.2,0-5.7,2.7-5.7,5.9C152,77.5,154.6,80.2,157.7,80.2L157.7,80.2z"/>
	<path fill-rule="evenodd" clip-rule="evenodd" fill="#9FBF39" d="M170.4,98.7l0-0.3L167.8,84c-0.2-1.4-1.3-2.3-2.6-2.3h-14.7
		c-1.3,0-2.4,1-2.6,2.3l-2.6,14.5l0,0.3c0,0.1,0,0.3,0,0.4c0,1.5,1.2,2.8,2.7,2.8c1.3,0,2.4-1,2.6-2.3l1.7-10.7l0,34.3
		c0,1.5,1.2,2.8,2.7,2.8c1.5,0,2.7-1.2,2.7-2.8v-17h0.6v17c0,1.5,1.2,2.8,2.7,2.8c1.5,0,2.7-1.2,2.7-2.8l0-34.3l1.7,10.8
		c0.2,1.3,1.3,2.3,2.6,2.3c1.5,0,2.7-1.2,2.7-2.8C170.4,99,170.4,98.9,170.4,98.7L170.4,98.7z"/>
	<path fill-rule="evenodd" clip-rule="evenodd" fill="#323347" d="M118.9,80.4c3.3,0,5.9-2.8,5.9-6.1c0-3.4-2.7-6.1-5.9-6.1
		c-3.3,0-5.9,2.8-5.9,6.1C113,77.7,115.7,80.4,118.9,80.4L118.9,80.4z"/>
	<path fill-rule="evenodd" clip-rule="evenodd" fill="#323347" d="M132,99.6c0-0.1,0-0.2,0-0.4l-2.7-15c-0.2-1.4-1.4-2.4-2.7-2.4
		h-15.2c-1.4,0-2.5,1-2.7,2.4l-2.7,15c0,0.1,0,0.2,0,0.4c0,0.1,0,0.3,0,0.4c0,1.6,1.2,2.9,2.8,2.9c1.3,0,2.5-1,2.7-2.4l1.7-11.1
		l0,35.5c0,1.6,1.2,2.9,2.8,2.9c1.5,0,2.8-1.3,2.8-2.9l0-17.6h0.7v17.6c0,1.6,1.2,2.9,2.8,2.9c1.5,0,2.8-1.3,2.8-2.9l0-35.5
		l1.7,11.1c0.2,1.4,1.4,2.4,2.7,2.4c1.5,0,2.8-1.3,2.8-2.9C132,99.9,132,99.8,132,99.6L132,99.6z"/>
	<path fill-rule="evenodd" clip-rule="evenodd" fill="#7FB9E6" d="M73,80.4c3.3,0,5.9-2.8,5.9-6.1c0-3.4-2.7-6.1-5.9-6.1
		c-3.3,0-5.9,2.8-5.9,6.1C67,77.7,69.7,80.4,73,80.4L73,80.4z"/>
	<path fill-rule="evenodd" clip-rule="evenodd" fill="#7FB9E6" d="M86.1,99.6c0-0.1,0-0.2,0-0.4l-2.7-15c-0.2-1.4-1.4-2.4-2.7-2.4
		H65.4c-1.4,0-2.5,1-2.7,2.4l-2.7,15c0,0.1,0,0.2,0,0.4c0,0.1,0,0.3,0,0.4c0,1.6,1.2,2.9,2.8,2.9c1.3,0,2.5-1,2.7-2.4l1.7-11.1
		l0,35.5c0,1.6,1.2,2.9,2.8,2.9c1.5,0,2.8-1.3,2.8-2.9v-17.6h0.7v17.6c0,1.6,1.2,2.9,2.8,2.9c1.5,0,2.8-1.3,2.8-2.9l0-35.5l1.7,11.1
		c0.2,1.4,1.4,2.4,2.7,2.4c1.5,0,2.8-1.3,2.8-2.9C86.1,99.9,86.1,99.8,86.1,99.6L86.1,99.6z"/>
	<path fill-rule="evenodd" clip-rule="evenodd" fill="#9FBF39" d="M34.6,81.1c3.2,0,5.7-2.7,5.7-5.9c0-3.3-2.6-5.9-5.7-5.9
		c-3.2,0-5.7,2.7-5.7,5.9C28.9,78.4,31.4,81.1,34.6,81.1L34.6,81.1z"/>
	<path fill-rule="evenodd" clip-rule="evenodd" fill="#9FBF39" d="M47.2,99.6c0-0.1,0-0.2,0-0.3l-2.6-14.4c-0.2-1.4-1.3-2.3-2.6-2.3
		H27.3c-1.3,0-2.4,1-2.6,2.3L22,99.3c0,0.1,0,0.2,0,0.3c0,0.1,0,0.3,0,0.4c0,1.5,1.2,2.8,2.7,2.8c1.3,0,2.4-1,2.6-2.3l1.7-10.7
		l0,34.3c0,1.5,1.2,2.8,2.7,2.8c1.5,0,2.7-1.2,2.7-2.8v-17h0.6v17c0,1.5,1.2,2.8,2.7,2.8c1.5,0,2.7-1.2,2.7-2.8l0-34.3l1.7,10.8
		c0.2,1.3,1.3,2.3,2.6,2.3c1.5,0,2.7-1.2,2.7-2.8C47.3,99.9,47.2,99.7,47.2,99.6L47.2,99.6z"/>
	<path fill-rule="evenodd" clip-rule="evenodd" fill="#7FB9E6" d="M138.6,81.2c4.3,0,7.8-3.6,7.8-8c0-4.4-3.5-8-7.8-8
		c-4.3,0-7.8,3.6-7.8,8C130.8,77.6,134.3,81.2,138.6,81.2L138.6,81.2z"/>
	<path fill-rule="evenodd" clip-rule="evenodd" fill="#7FB9E6" d="M155.7,106.3c0-0.1,0.1-0.3,0-0.5l-3.6-19.5
		c-0.3-1.8-1.8-3.2-3.6-3.2h-19.9c-1.8,0-3.3,1.3-3.6,3.1l-3.6,19.6c0,0.2,0,0.3,0,0.5c0,0.2,0,0.3,0,0.5c0,2.1,1.6,3.8,3.6,3.8
		c1.7,0,3.2-1.3,3.6-3.1l2.2-14.5l0,46.4c0,2.1,1.6,3.8,3.6,3.8c2,0,3.6-1.7,3.6-3.8v-22.9h0.9v22.9c0,2.1,1.6,3.8,3.6,3.8
		c2,0,3.6-1.7,3.6-3.8l0-46.4l2.3,14.5c0.3,1.8,1.8,3.1,3.6,3.1c2,0,3.6-1.7,3.6-3.8C155.7,106.6,155.7,106.5,155.7,106.3
		L155.7,106.3z"/>
	<path fill-rule="evenodd" clip-rule="evenodd" fill="#323347" d="M57.9,79.8c4.3,0,7.8-3.6,7.8-8c0-4.4-3.5-8-7.8-8
		c-4.3,0-7.8,3.6-7.8,8C50.2,76.2,53.6,79.8,57.9,79.8L57.9,79.8z"/>
	<path fill-rule="evenodd" clip-rule="evenodd" fill="#323347" d="M75,104.9c0-0.1,0.1-0.3,0-0.5l-3.6-19.5
		c-0.3-1.8-1.8-3.2-3.6-3.2H48c-1.8,0-3.3,1.3-3.6,3.1l-3.6,19.6c0,0.2,0,0.3,0,0.5c0,0.2,0,0.3,0,0.5c0,2.1,1.6,3.8,3.6,3.8
		c1.8,0,3.2-1.3,3.6-3.1l2.2-14.5l0,46.4c0,2.1,1.6,3.8,3.6,3.8c2,0,3.6-1.7,3.6-3.8v-22.9h0.9v22.9c0,2.1,1.6,3.8,3.6,3.8
		c2,0,3.6-1.7,3.6-3.8l0-46.4l2.2,14.5c0.3,1.8,1.8,3.1,3.6,3.1c2,0,3.6-1.7,3.6-3.8C75,105.2,75,105,75,104.9L75,104.9z"/>
	<path fill-rule="evenodd" clip-rule="evenodd" fill="#9FBF39" d="M98.1,76.3c4.8,0,8.8-4.1,8.8-9.1c0-5-3.9-9.1-8.8-9.1
		c-4.8,0-8.8,4.1-8.8,9.1C89.3,72.3,93.3,76.3,98.1,76.3L98.1,76.3z"/>
	<path fill-rule="evenodd" clip-rule="evenodd" fill="#9FBF39" d="M117.3,104.7c0.1-0.2,0.1-0.3,0-0.5l-4-22c-0.3-2.1-2-3.6-4-3.6
		H86.9c-2,0-3.7,1.5-4,3.5l-4,22.1c0,0.2,0,0.4,0,0.5c0,0.2,0,0.4,0,0.6c0,2.3,1.8,4.2,4.1,4.2c2,0,3.7-1.5,4-3.5l2.5-16.4l0,52.3
		c0,2.3,1.8,4.2,4.1,4.2c2.3,0,4.1-1.9,4.1-4.2V116h1v25.9c0,2.3,1.8,4.2,4.1,4.2c2.3,0,4.1-1.9,4.1-4.2l0-52.3l2.5,16.4
		c0.4,2,2,3.5,4,3.5c2.3,0,4.1-1.9,4.1-4.2C117.4,105.1,117.4,104.9,117.3,104.7L117.3,104.7z"/>
	<path fill-rule="evenodd" clip-rule="evenodd" fill="#9FBF39" d="M164.8,66.8L164.8,66.8l0.2-4c-0.7-0.4-1.4-1-2-1.5c0,0,0,0,0,0
		c7.9-3.4,12.7-11.2,12.9-19.4V41c0-2.5-0.5-5-1.4-7.4c5.6,0.4,10.7,4,13,9.6c3.2,8-0.5,17.3-8.3,20.7c-2,0.8-4,1.2-6,1.2
		c-1.5,0-2.9-0.2-4.2-0.6L164.8,66.8L164.8,66.8z"/>
	<path fill-rule="evenodd" clip-rule="evenodd" fill="#9FBF39" d="M105.6,59.6L105.6,59.6l-1.6-6.1c-4.7-1.2-9.2-3.8-12.6-7.9
		c-8.8-10.4-7.6-26.4,2.6-35.6c4.7-4.2,10.4-6.3,16.2-6.3c6.8,0,13.5,2.9,18.3,8.6c8.8,10.4,7.6,26.4-2.6,35.6
		c-4.4,4-9.8,6-15.1,6.2L105.6,59.6L105.6,59.6z"/>
	<path fill-rule="evenodd" clip-rule="evenodd" fill="#414053" d="M54.4,61.7L54.4,61.7l-5.1-4.4c-0.6,0-1.1,0.1-1.7,0.1
		c-3.2,0-6.5-0.7-9.5-2.2c0.8-1.9,1.2-4,1.3-6v-0.6c-0.1-5.1-2.5-10.2-7-13.3c-2.3-1.6-4.8-2.5-7.4-2.8c0.3-3.8,1.5-7.6,3.7-11
		c4.2-6.4,11.1-9.8,18.1-9.9h0.3c4.3,0,8.7,1.3,12.6,4.1c6.4,4.5,9.9,11.8,9.9,19.2V35c0,2-0.3,4.1-0.8,6.1
		c-0.6-0.1-1.2-0.2-1.8-0.2h-0.2c-3.2,0-6.4,1.6-8.3,4.6c-1.1,1.7-1.7,3.6-1.7,5.5v0.7c0,1.2,0.3,2.4,0.7,3.5
		c-0.7,0.4-1.4,0.7-2.1,0.9L54.4,61.7L54.4,61.7z"/>
	<path fill-rule="evenodd" clip-rule="evenodd" fill="#3A3C52" d="M57.4,55.1c-0.4-1.1-0.6-2.3-0.7-3.5V51c0.1-1.9,0.6-3.8,1.7-5.5
		c1.9-2.9,5.1-4.5,8.3-4.6H67c0.6,0,1.2,0.1,1.8,0.2c-0.6,2.3-1.6,4.5-2.9,6.5C63.6,50.9,60.7,53.5,57.4,55.1L57.4,55.1z"/>
	<path fill-rule="evenodd" clip-rule="evenodd" fill="#393D31" d="M38.1,55.3c-1.1-0.5-2.2-1.2-3.2-1.9c-6.3-4.5-9.8-11.6-9.9-18.9
		v-0.7c0-0.4,0-0.8,0.1-1.3c2.6,0.3,5.1,1.2,7.4,2.8c4.5,3.2,6.9,8.2,7,13.3v0.6C39.3,51.3,38.9,53.3,38.1,55.3L38.1,55.3z"/>
	<path fill-rule="evenodd" clip-rule="evenodd" fill="#90C1E9" d="M143.7,65.1L143.7,65.1l0.3-5.4c-3.5-2.2-6.4-5.6-8.2-9.9
		c-1-2.5-1.5-5.1-1.6-7.7v-0.9c0.2-8.2,5-16,12.9-19.4c2.7-1.1,5.4-1.7,8.1-1.7c8.1,0,15.8,4.9,19.1,13.1c0,0.1,0.1,0.2,0.1,0.4
		c-0.3,0-0.5,0-0.8,0h-0.7c-1.9,0-3.8,0.5-5.6,1.2c-7.9,3.4-11.6,12.7-8.3,20.7c0.9,2.3,2.3,4.2,4,5.8c-2.6,1.1-5.4,1.7-8.1,1.7
		c-2,0-3.9-0.3-5.8-0.8L143.7,65.1L143.7,65.1z"/>
	<path fill-rule="evenodd" clip-rule="evenodd" fill="#659B4F" d="M162.9,61.3c-1.7-1.5-3.1-3.5-4-5.8c-3.3-8,0.5-17.3,8.3-20.7
		c1.8-0.8,3.7-1.2,5.6-1.2h0.7c0.3,0,0.5,0,0.8,0c0.9,2.4,1.4,4.9,1.4,7.4v0.9C175.7,50.1,170.9,57.9,162.9,61.3
		C163,61.3,163,61.3,162.9,61.3L162.9,61.3z"/>
</g>
</svg>
