<?xml version="1.0" encoding="UTF-8" standalone="no"?>
<svg
   xmlns:dc="http://purl.org/dc/elements/1.1/"
   xmlns:cc="http://creativecommons.org/ns#"
   xmlns:rdf="http://www.w3.org/1999/02/22-rdf-syntax-ns#"
   xmlns:svg="http://www.w3.org/2000/svg"
   xmlns="http://www.w3.org/2000/svg"
   xmlns:sodipodi="http://sodipodi.sourceforge.net/DTD/sodipodi-0.dtd"
   xmlns:inkscape="http://www.inkscape.org/namespaces/inkscape"
   width="85.462997mm"
   height="29.596001mm"
   viewBox="0 0 85.462997 29.596001"
   version="1.1"
   id="svg9367"
   inkscape:version="1.0.1 (3bc2e813f5, 2020-09-07)"
   sodipodi:docname="logo-cotizar-header.svg">
  <defs
     id="defs9361" />
  <sodipodi:namedview
     id="base"
     pagecolor="#ffffff"
     bordercolor="#666666"
     borderopacity="1.0"
     inkscape:pageopacity="0.0"
     inkscape:pageshadow="2"
     inkscape:zoom="1.4"
     inkscape:cx="200.7954"
     inkscape:cy="150.95666"
     inkscape:document-units="mm"
     inkscape:current-layer="layer1"
     inkscape:document-rotation="0"
     showgrid="false"
     inkscape:window-width="1463"
     inkscape:window-height="1030"
     inkscape:window-x="64"
     inkscape:window-y="0"
     inkscape:window-maximized="0" />
  <metadata
     id="metadata9364">
    <rdf:RDF>
      <cc:Work
         rdf:about="">
        <dc:format>image/svg+xml</dc:format>
        <dc:type
           rdf:resource="http://purl.org/dc/dcmitype/StillImage" />
        <dc:title></dc:title>
      </cc:Work>
    </rdf:RDF>
  </metadata>
  <g
     inkscape:label="Capa 1"
     inkscape:groupmode="layer"
     id="layer1">
    <g
       id="g9442"
       transform="translate(-90.97633,18.761241)">
      <path
         style="fill:#f5a12b;fill-opacity:1;fill-rule:evenodd;stroke:none;stroke-width:0.352777"
         d="m 103.74028,-7.9286799 c 0.5898,0.66008 0.94947,1.53513 0.94947,2.49287 0,0.0992 -0.003,0.19706 -0.011,0.29352 -0.20808,-0.003 -0.41479,-0.004 -0.62701,-0.005 0.008,-0.0951 0.0138,-0.19155 0.0138,-0.28801 0,-1.65227 -1.07762,-3.02893 -2.50114,-3.3293396 -0.19292,-0.0234 -0.38998,-0.0386 -0.58704,-0.0386 -0.19706,0 -0.39274,0.0152 -0.58291,0.0386 -1.427647,0.2990286 -2.503895,1.6756986 -2.503895,3.3293386 0,0.22186 0.0193,0.43684 0.0565,0.64768 -0.206706,0.0262 -0.410654,0.0524 -0.611851,0.0799 -0.04685,-0.23426 -0.07166,-0.47817 -0.07166,-0.7276 0,-0.95911 0.361047,-1.83279 0.952225,-2.49287 -1.114834,0.7717 -1.947167,1.99678 -2.276521,3.44096 -0.569129,0.1006 -1.124479,0.21084 -1.661911,0.33073 0.523653,-4.6715496 4.471733,-8.3054401 9.264543,-8.3054401 4.7377,0 8.65271,3.5567205 9.24389,8.1566101 -0.52366,-0.106109 -1.06247,-0.203949 -1.61644,-0.292139 -0.6463,-3.9852899 -3.81579,-7.0128401 -7.62745,-7.0128401 -2.53834,0 -4.791435,1.34221 -6.205301,3.4134001 1.02664,-0.7413798 2.282031,-1.17684 3.640781,-1.17684 2.7671,0 5.11665,1.81074 5.93796,4.31739 -0.35691,-0.022 -0.71658,-0.04 -1.07762,-0.0537 -0.40377,-1.17271 -1.14653,-2.15939 -2.09738,-2.81809 M 103.54186,-18.57763 c 6.88193,0 12.46712,5.60862 12.46712,12.5263701 0,0.85576 -0.0854,1.68947 -0.24805,2.49562 -0.63528,-0.19568 -1.30638,-0.3762 -2.00918,-0.54019 0.0992,-0.63527 0.15296,-1.28709 0.15296,-1.95543 0,-6.2893701 -4.64261,-11.3881101 -10.36285,-11.3881101 -5.724366,0 -10.36422,5.09874 -10.36422,11.3881101 0,0.72347 0.06063,1.42902 0.177765,2.11528 -0.700041,0.17777 -1.364255,0.37483 -1.99264,0.58429 -0.190172,-0.86816 -0.290767,-1.77215 -0.290767,-2.69957 0,-6.9177501 5.582433,-12.5263701 12.469862,-12.5263701"
         id="path819" />
      <path
         style="fill:#00738f;fill-opacity:1;fill-rule:nonzero;stroke:none;stroke-width:0.352777"
         d="m 170.00325,-8.4674899 h 0.0317 c 0.18466,0.16398 1.19889,1.28984 2.24344,2.29718 1.00321,0.97428 2.20073,2.12218 2.79742,2.68029 0.0992,0.10197 0.23151,0.19844 0.39274,0.19844 0.0786,0 0.15297,-0.0868 0.15297,-0.2949 l 0.10886,-5.86493 c 0.0124,-0.52641 0.0882,-0.6890201 0.35002,-0.7675701 0.12127,-0.0317 0.19568,-0.0317 0.29214,-0.0317 0.10887,0 0.16261,-0.0427 0.16261,-0.0978 0,-0.0772 -0.0854,-0.0868 -0.21635,-0.0868 -0.46715,0 -0.82682,0.0207 -0.93569,0.0207 -0.20808,0 -0.71933,-0.0207 -1.22094,-0.0207 -0.14056,0 -0.2384,0.01 -0.2384,0.0868 0,0.0551 0.0331,0.0978 0.15158,0.0978 0.13092,0 0.36105,0 0.50161,0.0551 0.22876,0.0882 0.31557,0.2521803 0.32522,0.8199301 l 0.0978,4.13549 h -0.0441 c -0.14056,-0.13091 -1.41387,-1.44556 -2.06706,-2.09048 -1.39457,-1.3656299 -2.83187,-2.8428901 -2.95176,-2.9627801 -0.16261,-0.16537 -0.29214,-0.3073 -0.41479,-0.3073 -0.0978,0 -0.16261,0.13091 -0.16261,0.31695 l -0.0868,5.5149001 c -0.011,0.80891 -0.0427,1.05972 -0.29352,1.12586 -0.12815,0.0331 -0.30592,0.0441 -0.43546,0.0441 -0.0854,0 -0.15296,0.0441 -0.15296,0.0978 0,0.0896 0.0868,0.1006 0.21773,0.1006 0.49058,0 0.94809,-0.0331 1.03629,-0.0331 0.17363,0 0.61874,0.0331 1.24161,0.0331 0.12953,0 0.21773,-0.022 0.21773,-0.1006 0,-0.0537 -0.0551,-0.0978 -0.16399,-0.0978 -0.15296,0 -0.33899,-0.011 -0.5016,-0.0648 -0.18328,-0.0661 -0.30593,-0.28525 -0.32798,-1.00735 z m -9.89018,2.0891 c 0,1.34635 0.38034,2.03536 0.86954,2.46118 0.69729,0.61598 1.6881,0.63665 2.18833,0.63665 0.62149,0 1.35185,-0.0978 2.02571,-0.66835 0.80477,-0.66697 0.91364,-1.76113 0.91364,-2.80017 v -0.99632 c 0,-1.4111099 0.0138,-1.6743198 0.022,-1.9692199 0.022,-0.3279702 0.0882,-0.4588902 0.35002,-0.5043602 0.11989,-0.0207 0.17364,-0.0317 0.2825,-0.0317 0.10886,0 0.16261,-0.0331 0.16261,-0.0978 0,-0.0661 -0.0648,-0.0868 -0.19568,-0.0868 -0.36932,0 -1.01148,0.0207 -1.12035,0.0207 -0.0138,0 -0.65319,-0.0207 -1.14377,-0.0207 -0.12954,0 -0.19706,0.0207 -0.19706,0.0868 0,0.0648 0.0551,0.0978 0.16536,0.0978 0.10749,0 0.27148,0.011 0.34727,0.0317 0.30455,0.0868 0.38172,0.18741 0.40239,0.5043602 0.011,0.2949001 0.022,0.55811 0.022,1.9692199 v 1.17133 c 0,0.95085 -0.022,1.75975 -0.55535,2.26274 -0.38172,0.37345 -0.87092,0.49471 -1.28571,0.49471 -0.32522,0 -0.7841,-0.0345 -1.20854,-0.37345 -0.46578,-0.37069 -0.73036,-0.89847 -0.73036,-2.25446 v -1.30087 c 0,-1.4111099 0,-1.6743198 0.0234,-1.9692199 0.022,-0.3279702 0.0978,-0.4588902 0.34864,-0.5043602 0.11852,-0.0207 0.17364,-0.0317 0.28112,-0.0317 0.0992,0 0.15296,-0.0331 0.15296,-0.0978 0,-0.0661 -0.0648,-0.0868 -0.20532,-0.0868 -0.34865,0 -0.99081,0.0207 -1.22921,0.0207 -0.28526,0 -0.92742,-0.0207 -1.43867,-0.0207 -0.14194,0 -0.20671,0.0207 -0.20671,0.0868 0,0.0648 0.0537,0.0978 0.16261,0.0978 0.13229,0 0.2949,0.011 0.37069,0.0317 0.30455,0.0868 0.39274,0.17639 0.41341,0.5043602 0.0207,0.2949001 0.0124,0.55811 0.0124,1.9692199 z m -6.13503,0.27423 c 0,0.85438 0,1.5875 -0.0427,1.98024 -0.0358,0.27285 -0.0896,0.44787 -0.28387,0.49196 -0.0772,0.022 -0.19569,0.0331 -0.33762,0.0331 -0.12127,0 -0.15434,0.0551 -0.15434,0.0978 0,0.0661 0.0661,0.1006 0.18466,0.1006 0.38309,0 1.0349,-0.0331 1.25263,-0.0331 0.27423,0 0.9164,0.0331 1.54616,0.0331 0.10887,0 0.18741,-0.0345 0.18741,-0.1006 0,-0.0427 -0.0441,-0.0978 -0.15296,-0.0978 -0.14331,0 -0.35966,-0.011 -0.49058,-0.0331 -0.28112,-0.0441 -0.33624,-0.21911 -0.36931,-0.48094 -0.0427,-0.40376 -0.0551,-1.13688 -0.0551,-1.99126 v -3.76342 l 1.20716,0.0234 c 0.85989,0.008 1.11208,0.2935301 1.13412,0.5346902 l 0.011,0.0978 c 0.011,0.14194 0.0317,0.1860399 0.10749,0.1860399 0.0551,0 0.0772,-0.0537 0.0882,-0.15158 0,-0.2425399 0.0207,-0.9301802 0.0207,-1.1286202 0,-0.14194 -0.011,-0.19706 -0.0744,-0.19706 -0.0345,0 -0.11024,0.022 -0.26183,0.0441 -0.14331,0.0234 -0.34864,0.0441 -0.65181,0.0441 h -3.88881 c -0.31557,0 -0.67523,-0.011 -0.95773,-0.0441 -0.23978,-0.0331 -0.33762,-0.10886 -0.41479,-0.10886 -0.0551,0 -0.0868,0.0537 -0.10887,0.175 -0.0193,0.0758 -0.20808,0.9729003 -0.20808,1.1272403 0,0.0965 0.0234,0.15158 0.0896,0.15158 0.0648,0 0.0854,-0.0427 0.10886,-0.1185 0.0193,-0.0661 0.0634,-0.18742 0.16261,-0.31833 0.14056,-0.20809 0.3707,-0.27423 0.92742,-0.28526 l 1.42489,-0.0317 z m -7.768,-0.15434 c -0.0331,0 -0.0551,-0.0207 -0.0331,-0.0634 l 0.92467,-2.35231 c 0.0124,-0.0331 0.0248,-0.0882 0.0551,-0.0882 0.0234,0 0.0344,0.0551 0.0441,0.0882 l 0.90261,2.36196 c 0.011,0.0331 0,0.0537 -0.0427,0.0537 z m 2.05741,0.51401 c 0.0427,0 0.0772,0.0124 0.0965,0.0661 l 0.74139,1.87137 c 0.0455,0.10887 -0.0193,0.19706 -0.0868,0.20809 -0.0978,0.0124 -0.11852,0.0441 -0.11852,0.0978 0,0.0661 0.10887,0.0661 0.28388,0.0785 0.80478,0.0221 1.50206,0.0221 1.83968,0.0221 0.35967,0 0.41341,-0.0221 0.41341,-0.10059 0,-0.0648 -0.0441,-0.0978 -0.13091,-0.0978 -0.10749,0 -0.21911,-0.011 -0.35967,-0.0331 -0.17363,-0.04 -0.44648,-0.16261 -0.81717,-1.00046 -0.6091,-1.40697 -2.209,-5.2117401 -2.43776,-5.7271201 -0.0992,-0.20809 -0.14331,-0.29628 -0.28387,-0.29628 -0.0978,0 -0.17363,0.10886 -0.28112,0.37207 l -2.50665,5.8525301 c -0.1943,0.47129 -0.35829,0.75516 -0.79651,0.82131 -0.0868,0 -0.19706,0.011 -0.2825,0.011 -0.0758,0 -0.11024,0.0441 -0.11024,0.0978 0,0.0785 0.0565,0.10059 0.17501,0.10059 0.50436,0 1.01424,-0.0331 1.11346,-0.0331 0.30592,0 0.74965,0.0331 1.0666,0.0331 0.0978,0 0.15296,-0.0221 0.15296,-0.10059 0,-0.0538 -0.0234,-0.0978 -0.14194,-0.0978 h -0.14194 c -0.29489,0 -0.38033,-0.0992 -0.38033,-0.26321 0,-0.10887 0.0441,-0.339 0.14056,-0.56913 l 0.51125,-1.24712 c 0.022,-0.0538 0.0331,-0.0661 0.0882,-0.0661 z m -8.26823,-1.09279 c 0,-0.0661 0.022,-0.0785 0.0648,-0.0785 0.16399,0 1.29536,0.0124 1.53514,0.0358 0.2949,0.0221 0.41479,0.20532 0.45888,0.33762 0.0427,0.10886 0.0648,0.22048 0.0648,0.28387 0,0.0662 0.0317,0.13092 0.0854,0.13092 0.0992,0 0.11162,-0.13092 0.11162,-0.20671 0,-0.0661 0.01,-0.49196 0.0331,-0.67799 0.0317,-0.29491 0.0744,-0.54709 0.0744,-0.60221 0,-0.0537 -0.0193,-0.0868 -0.0538,-0.0868 -0.0537,0 -0.0772,0.0441 -0.13229,0.0992 -0.0868,0.11852 -0.22737,0.15296 -0.40238,0.16261 -0.14056,0.0124 -0.27285,0.0124 -0.43408,0.0124 l -1.34084,0.011 c -0.0538,0 -0.0648,-0.0331 -0.0648,-0.0896 V -9.75877 c 0,-0.1088602 0.0317,-0.1322901 0.0868,-0.1322901 l 1.59026,0.0345 c 0.35967,0.012401 0.54295,0.1529599 0.61047,0.2838699 0.0661,0.13092 0.0551,0.27423 0.0551,0.3500202 0,0.1088699 0.0537,0.1529699 0.11851,0.1529699 0.0634,0 0.0868,-0.1074902 0.0978,-0.1846601 0.011,-0.11024 0.0331,-0.65732 0.0427,-0.7551698 0.0331,-0.24115 0.0772,-0.35002 0.0772,-0.41616 0,-0.0441 -0.0331,-0.0882 -0.0661,-0.0882 -0.0537,0 -0.0965,0.0441 -0.15158,0.0551 -0.0992,0.0234 -0.21911,0.0331 -0.39136,0.0441 -0.23014,0.011 -2.35232,0 -2.72439,0 -0.27009,0 -0.88056,-0.0207 -1.36977,-0.0207 -0.15296,0 -0.22875,0.0207 -0.22875,0.0868 0,0.0648 0.0758,0.0978 0.16261,0.0978 0.14056,0 0.30592,0.011 0.38309,0.0317 0.3018,0.0786 0.38999,0.18742 0.41204,0.5043697 0.01,0.2949001 0.01,0.5580999 0.01,1.9692104 v 1.64125 c 0,0.8971 0,1.5875 -0.0413,1.98024 -0.0345,0.27285 -0.0882,0.44786 -0.2825,0.49196 -0.0896,0.022 -0.19844,0.0331 -0.34037,0.0331 -0.10611,0 -0.14057,0.0551 -0.14057,0.0978 0,0.0786 0.0661,0.1006 0.19431,0.1006 0.36104,0 0.97152,-0.0331 1.22094,-0.0331 0.24942,0 0.92742,0.0331 1.53376,0.0331 0.14331,0 0.2067,-0.0345 0.2067,-0.1006 0,-0.0427 -0.0413,-0.0978 -0.15985,-0.0978 -0.13367,0 -0.339,-0.011 -0.46854,-0.0331 -0.28525,-0.0441 -0.35001,-0.21911 -0.38309,-0.49196 -0.0427,-0.39274 -0.0538,-1.05007 -0.0538,-1.94855 z m -6.84333,3.55672 c 0.51263,0 1.14377,-0.0537 1.60128,-0.38309 0.69728,-0.49334 0.96049,-1.05145 0.96049,-1.74184 0,-0.84061 -0.39274,-1.55305 -1.65502,-2.25172 l -0.39412,-0.2191 c -0.85852,-0.48094 -1.01424,-0.8102899 -1.01424,-1.2250798 0,-0.6339001 0.6215,-0.9963203 1.30776,-0.9963203 0.62011,0 0.92466,0.2618203 1.06798,0.4368303 0.20533,0.24116 0.24942,0.5264099 0.24942,0.6132298 0,0.1088702 0.0345,0.16261 0.0978,0.16261 0.0772,0 0.12127,-0.0965 0.12127,-0.29214 0,-0.7345 0.0331,-0.9963301 0.0331,-1.1162201 0,-0.0661 -0.0455,-0.0992 -0.13091,-0.12126 -0.2508,-0.0661 -0.74139,-0.15296 -1.36288,-0.15296 -1.32843,0 -2.4157,0.7317303 -2.4157,1.8713701 0,0.81994 0.36931,1.44419 1.50206,2.11115 l 0.55535,0.3266 c 0.84887,0.50299 0.94947,0.90951 0.94947,1.31465 0,0.65594 -0.50298,1.18236 -1.32843,1.18236 -0.59945,0 -1.32154,-0.23151 -1.52549,-0.92054 -0.0537,-0.16398 -0.0882,-0.36104 -0.0882,-0.48231 0,-0.0648 -0.011,-0.15158 -0.0978,-0.15158 -0.0744,0 -0.11989,0.0992 -0.11989,0.23978 -0.01,0.15434 -0.0538,0.73311 -0.0538,1.23748 0,0.2067 0.0317,0.25218 0.18466,0.31832 0.41341,0.18604 1.00046,0.23978 1.55581,0.23978 m -8.18004,-0.51539 c -2.09186,0 -3.3445,-1.80247 -3.3445,-4.08036 0,-2.7243901 1.42765,-3.4244301 2.68166,-3.4244301 1.78456,0 3.18878,1.5199802 3.18878,3.9701301 0,3.16259 -1.76526,3.53466 -2.52594,3.53466 m -0.45751,0.54846 c 2.7671,0 4.50756,-1.98162 4.50756,-4.48551 0,-2.5066501 -1.68672,-4.0927801 -4.3987,-4.0927801 -3.26595,0 -4.49791,2.4170903 -4.49791,4.2884601 0,1.9389 1.26504,4.28983 4.38905,4.28983"
         id="path821" />
      <path
         style="fill:#f0ab35;fill-opacity:1;fill-rule:nonzero;stroke:none;stroke-width:0.352777"
         d="m 91.071978,3.3726101 c 0,-0.21497 0.169499,-0.38998 0.388606,-0.38998 h 0.07993 c 0.190171,0 0.294901,0.0951 0.402388,0.22599 l 2.196592,2.84152 v -2.69682 c 0,-0.20671 0.16812,-0.37621 0.374827,-0.37621 0.213596,0 0.383095,0.1695 0.383095,0.37621 v 3.68763 c 0,0.21497 -0.162609,0.38309 -0.376205,0.38309 h -0.03168 c -0.181903,0 -0.293522,-0.0937 -0.401009,-0.23151 l -2.258604,-2.92282 v 2.78502 c 0,0.2067 -0.169499,0.3762 -0.376205,0.3762 -0.212217,0 -0.381717,-0.1695 -0.381717,-0.3762 z m 0,0"
         id="path823" />
      <path
         style="fill:#f0ab35;fill-opacity:1;fill-rule:nonzero;stroke:none;stroke-width:0.352777"
         d="m 98.787613,7.0547301 c 0,0.2067 -0.16812,0.3762 -0.383096,0.3762 -0.206703,0 -0.383092,-0.16398 -0.383092,-0.3762 v -0.1695 c -0.21222,0.31419 -0.519521,0.58291 -1.034908,0.58291 -0.745519,0 -1.178222,-0.50161 -1.178222,-1.27331 v -1.76389 c 0,-0.21084 0.169499,-0.38171 0.376202,-0.38171 0.213597,0 0.383096,0.17087 0.383096,0.38171 v 1.53789 c 0,0.51401 0.257693,0.8034 0.708311,0.8034 0.439596,0 0.745521,-0.30179 0.745521,-0.81442 v -1.52687 c 0,-0.21084 0.169496,-0.38171 0.383092,-0.38171 0.208086,0 0.383096,0.17087 0.383096,0.38171 z m 0,0"
         id="path825" />
      <path
         style="fill:#f0ab35;fill-opacity:1;fill-rule:nonzero;stroke:none;stroke-width:0.352777"
         d="m 101.913,5.5099501 c -0.051,-0.48783 -0.33899,-0.86955 -0.8406,-0.86955 -0.4644,0 -0.79099,0.35692 -0.8599,0.86955 z m -0.75378,1.96508 c -0.95912,0 -1.700504,-0.69729 -1.700504,-1.71979 v -0.0124 c 0,-0.94671 0.672484,-1.7253 1.620574,-1.7253 1.05282,0 1.57372,0.86678 1.57372,1.63297 0,0.21222 -0.16261,0.36243 -0.35691,0.36243 h -2.07808 c 0.0827,0.54019 0.46577,0.8406 0.9536,0.8406 0.32108,0 0.57189,-0.113 0.78548,-0.28939 0.0565,-0.0427 0.10611,-0.0675 0.1943,-0.0675 0.1695,0 0.30042,0.13229 0.30042,0.3073 0,0.0937 -0.0441,0.17501 -0.0992,0.23151 -0.30179,0.2701 -0.67938,0.43959 -1.19338,0.43959"
         id="path827" />
      <path
         style="fill:#f0ab35;fill-opacity:1;fill-rule:nonzero;stroke:none;stroke-width:0.352777"
         d="m 103.21249,7.0671301 c -0.0827,-0.0441 -0.14469,-0.13918 -0.14469,-0.2632 0,-0.1695 0.13091,-0.30731 0.3073,-0.30731 0.0634,0 0.11851,0.0193 0.16261,0.0441 0.32108,0.21222 0.65319,0.3197 0.9536,0.3197 0.3266,0 0.51401,-0.1378 0.51401,-0.35691 v -0.0124 c 0,-0.25769 -0.3514,-0.34589 -0.73863,-0.4644 -0.49058,-0.13918 -1.03628,-0.34037 -1.03628,-0.97289 v -0.0124 c 0,-0.62838 0.5209,-1.010099 1.1796,-1.010099 0.3514,0 0.72209,0.100599 1.0418,0.268719 0.10611,0.0579 0.1819,0.15709 0.1819,0.28801 0,0.17639 -0.13781,0.308681 -0.31419,0.308681 -0.062,0 -0.1006,-0.0124 -0.15021,-0.0386 -0.2701,-0.1378 -0.54571,-0.22599 -0.77722,-0.22599 -0.29627,0 -0.46577,0.13918 -0.46577,0.32659 v 0.0138 c 0,0.24392 0.35829,0.34314 0.74689,0.46991 0.4837,0.15021 1.0294,0.3707 1.0294,0.96601 v 0.0124 c 0,0.69591 -0.53881,1.04179 -1.23059,1.04179 -0.4203,0 -0.87781,-0.13229 -1.25953,-0.39549"
         id="path829" />
      <path
         style="fill:#f0ab35;fill-opacity:1;fill-rule:nonzero;stroke:none;stroke-width:0.352777"
         d="m 106.4812,6.4828401 v -1.74322 h -0.1254 c -0.1819,0 -0.3266,-0.14469 -0.3266,-0.32659 0,-0.1819 0.1447,-0.32522 0.3266,-0.32522 h 0.1254 v -0.56499 c 0,-0.20671 0.1695,-0.37621 0.38172,-0.37621 0.2067,0 0.3762,0.1695 0.3762,0.37621 v 0.56499 h 0.59669 c 0.1819,0 0.33211,0.14332 0.33211,0.32522 0,0.1819 -0.15021,0.32659 -0.33211,0.32659 h -0.59669 v 1.62471 c 0,0.29352 0.15159,0.41341 0.4079,0.41341 0.0882,0 0.16261,-0.0179 0.18879,-0.0179 0.16812,0 0.32108,0.1378 0.32108,0.31282 0,0.1378 -0.0951,0.2508 -0.20119,0.29489 -0.16399,0.0565 -0.32108,0.0882 -0.5209,0.0882 -0.55948,0 -0.9536,-0.24529 -0.9536,-0.9729"
         id="path831" />
      <path
         style="fill:#f0ab35;fill-opacity:1;fill-rule:nonzero;stroke:none;stroke-width:0.352777"
         d="m 108.80871,4.4309401 c 0,-0.21084 0.16261,-0.38171 0.3762,-0.38171 0.2136,0 0.38309,0.17087 0.38309,0.38171 v 0.34038 c 0.17502,-0.41341 0.50161,-0.72898 0.8351,-0.72898 0.23702,0 0.37482,0.15847 0.37482,0.3762 0,0.20119 -0.13091,0.33349 -0.30179,0.36518 -0.53881,0.0937 -0.90813,0.5085 -0.90813,1.29122 v 0.97979 c 0,0.2067 -0.16949,0.3762 -0.38309,0.3762 -0.2067,0 -0.3762,-0.16398 -0.3762,-0.3762 z m 0,0"
         id="path833" />
      <path
         style="fill:#f0ab35;fill-opacity:1;fill-rule:nonzero;stroke:none;stroke-width:0.352777"
         d="m 113.78342,5.7621301 v -0.0124 c 0,-0.58429 -0.4203,-1.0666 -1.01561,-1.0666 -0.60909,0 -0.9977,0.4768 -0.9977,1.05282 v 0.0138 c 0,0.57602 0.4203,1.05971 1.0101,1.05971 0.61461,0 1.00321,-0.47542 1.00321,-1.04731 m -2.77261,0 v -0.0124 c 0,-0.94809 0.75379,-1.73219 1.7694,-1.73219 1.01562,0 1.76251,0.7717 1.76251,1.71841 v 0.0138 c 0,0.941199 -0.75241,1.7253 -1.77491,1.7253 -1.0101,0 -1.757,-0.771701 -1.757,-1.7129"
         id="path835" />
      <path
         style="fill:#f0ab35;fill-opacity:1;fill-rule:nonzero;stroke:none;stroke-width:0.352777"
         d="m 119.66214,5.7497301 v -0.0138 c 0,-0.63941 -0.43133,-1.05971 -0.94672,-1.05971 -0.514,0 -0.966,0.42719 -0.966,1.05971 v 0.0138 c 0,0.63389 0.452,1.06109 0.966,1.06109 0.5209,0 0.94672,-0.4079 0.94672,-1.06109 m -2.65273,-1.31741 c 0,-0.2136 0.16261,-0.38309 0.37621,-0.38309 0.21359,0 0.38171,0.16949 0.38171,0.38309 v 0.20808 c 0.24529,-0.34588 0.5898,-0.62287 1.13137,-0.62287 0.77584,0 1.53514,0.61461 1.53514,1.71841 v 0.0138 c 0,1.09691 -0.75241,1.71841 -1.53514,1.71841 -0.55397,0 -0.89848,-0.27561 -1.13137,-0.58291 v 1.172709 c 0,0.213591 -0.16812,0.376201 -0.38171,0.376201 -0.20671,0 -0.37621,-0.16261 -0.37621,-0.376201 z m 0,0"
         id="path837" />
      <path
         style="fill:#f0ab35;fill-opacity:1;fill-rule:nonzero;stroke:none;stroke-width:0.352777"
         d="m 121.16833,3.1645301 c 0,-0.20671 0.16399,-0.37621 0.3762,-0.37621 0.2136,0 0.3831,0.1695 0.3831,0.37621 v 3.8902 c 0,0.21222 -0.1695,0.3762 -0.3831,0.3762 -0.2067,0 -0.3762,-0.16398 -0.3762,-0.3762 z m 0,0"
         id="path839" />
      <path
         style="fill:#f0ab35;fill-opacity:1;fill-rule:nonzero;stroke:none;stroke-width:0.352777"
         d="m 124.87663,6.2072301 v -0.22599 c -0.19568,-0.0758 -0.45062,-0.13092 -0.75241,-0.13092 -0.49058,0 -0.77859,0.20671 -0.77859,0.5526 v 0.011 c 0,0.32108 0.2825,0.50299 0.6463,0.50299 0.50161,0 0.8847,-0.28802 0.8847,-0.70969 m -2.271,0.2384 v -0.0124 c 0,-0.71521 0.55948,-1.0666 1.36701,-1.0666 0.37069,0 0.63527,0.0565 0.89159,0.1378 v -0.0813 c 0,-0.471281 -0.28801,-0.72209 -0.82131,-0.72209 -0.28939,0 -0.52641,0.051 -0.73312,0.13229 -0.0455,0.0124 -0.0827,0.0193 -0.12126,0.0193 -0.17501,0 -0.31971,-0.1378 -0.31971,-0.31419 0,-0.1378 0.0951,-0.25632 0.20808,-0.30041 0.31282,-0.11852 0.6339,-0.19569 1.06522,-0.19569 0.4961,0 0.8668,0.1323 1.09831,0.3707 0.24529,0.23977 0.35691,0.5898 0.35691,1.0225 v 1.6316 c 0,0.2067 -0.16261,0.3638 -0.36932,0.3638 -0.2191,0 -0.37069,-0.15021 -0.37069,-0.3197 v -0.12678 c -0.22462,0.27147 -0.57051,0.48369 -1.079,0.48369 -0.6215,0 -1.17271,-0.35691 -1.17271,-1.02251"
         id="path841" />
      <path
         style="fill:#f0ab35;fill-opacity:1;fill-rule:nonzero;stroke:none;stroke-width:0.352777"
         d="m 126.41452,4.4309401 c 0,-0.21084 0.16261,-0.38171 0.37621,-0.38171 0.2136,0 0.38309,0.17087 0.38309,0.38171 v 0.16399 c 0.2136,-0.30593 0.51952,-0.5774 1.03491,-0.5774 0.74552,0 1.1796,0.50161 1.1796,1.2678 v 1.7694 c 0,0.21222 -0.16261,0.3762 -0.37621,0.3762 -0.21359,0 -0.38309,-0.16398 -0.38309,-0.3762 v -1.53651 c 0,-0.51539 -0.25769,-0.80891 -0.70831,-0.80891 -0.43959,0 -0.7469,0.30592 -0.7469,0.82131 v 1.52411 c 0,0.21222 -0.16949,0.3762 -0.38309,0.3762 -0.20671,0 -0.37621,-0.16398 -0.37621,-0.3762 z m 0,0"
         id="path843" />
      <path
         style="fill:#f0ab35;fill-opacity:1;fill-rule:nonzero;stroke:none;stroke-width:0.352777"
         d="m 134.26934,5.5099501 c -0.051,-0.48783 -0.33762,-0.86955 -0.8406,-0.86955 -0.4644,0 -0.78962,0.35692 -0.8599,0.86955 z m -0.75241,1.96508 c -0.96049,0 -1.7005,-0.69729 -1.7005,-1.71979 v -0.0124 c 0,-0.94671 0.6711,-1.7253 1.61782,-1.7253 1.0542,0 1.57648,0.86678 1.57648,1.63297 0,0.21222 -0.16399,0.36243 -0.3583,0.36243 h -2.0767 c 0.0813,0.54019 0.46302,0.8406 0.9536,0.8406 0.31971,0 0.57051,-0.113 0.78273,-0.28939 0.0579,-0.0427 0.10749,-0.0675 0.19568,-0.0675 0.16812,0 0.30179,0.13229 0.30179,0.3073 0,0.0937 -0.0455,0.17501 -0.10197,0.23151 -0.30041,0.2701 -0.67662,0.43959 -1.19063,0.43959"
         id="path845" />
      <path
         style="fill:#f0ab35;fill-opacity:1;fill-rule:nonzero;stroke:none;stroke-width:0.352777"
         d="m 135.56883,7.0671301 c -0.0813,-0.0441 -0.14469,-0.13918 -0.14469,-0.2632 0,-0.1695 0.13229,-0.30731 0.30868,-0.30731 0.062,0 0.11851,0.0193 0.16123,0.0441 0.3197,0.21222 0.65319,0.3197 0.95498,0.3197 0.32521,0 0.51263,-0.1378 0.51263,-0.35691 v -0.0124 c 0,-0.25769 -0.35002,-0.34589 -0.74001,-0.4644 -0.48782,-0.13918 -1.03353,-0.34037 -1.03353,-0.97289 v -0.0124 c 0,-0.628379 0.51952,-1.010099 1.17823,-1.010099 0.35277,0 0.72071,0.100599 1.04179,0.268719 0.10611,0.0579 0.18191,0.15709 0.18191,0.28801 0,0.176391 -0.13781,0.308681 -0.3142,0.308681 -0.062,0 -0.10059,-0.0124 -0.15021,-0.0386 -0.27009,-0.137801 -0.5457,-0.225991 -0.77721,-0.225991 -0.2949,0 -0.4644,0.13918 -0.4644,0.32659 v 0.0138 c 0,0.24392 0.35829,0.34314 0.74552,0.46991 0.48231,0.15021 1.0294,0.3707 1.0294,0.96601 v 0.0124 c 0,0.69591 -0.5402,1.04179 -1.22921,1.04179 -0.42031,0 -0.87781,-0.13229 -1.26091,-0.39549"
         id="path847" />
      <path
         style="fill:#f0ab35;fill-opacity:1;fill-rule:nonzero;stroke:none;stroke-width:0.352777"
         d="m 144.21464,2.4975601 0.0179,-0.0179 c -0.0537,0.0179 -0.0717,0.0358 -0.0717,0.0717 0,0 0,0.0179 0.0179,0.0537 -0.0179,0.0896 -0.0537,0.21635 -0.10749,0.30592 0.0179,0.0358 0.0358,0.0703 0.0358,0.0703 0.12541,-0.0703 0.0717,-0.35829 0.12541,-0.48369 z m -0.10749,0.52089 c -0.0358,0.0358 -0.0537,0.0717 -0.073,0.10749 l 0.0193,0.0717 c 0.0537,-0.0179 0.0537,-0.0717 0.0537,-0.1254 z m -1.1479,2.18833 -0.0538,-0.0179 c 0.0179,-0.0179 0.0179,-0.0179 0.0358,-0.0179 z m -0.23427,-3.21083 c -0.0179,0 -0.0179,0 -0.0179,0.0165 v -0.0165 z m 0.0193,0.0717 c -0.0372,0 -0.14469,0 -0.14469,0.0524 l -0.0165,-0.0179 c 0.0165,-0.0345 0.0882,-0.0717 0.12402,-0.0896 z m -0.41341,0.42995 v -0.0179 c 0.0372,-0.0703 0.14332,-0.26872 0.21498,-0.26872 v 0.0537 c -0.0165,0.0537 -0.14332,0.25081 -0.17777,0.25081 -0.0193,0 -0.0372,0 -0.0372,-0.0179 m -0.0717,0.12539 0.0179,0.0179 c 0,0.0358 -0.0358,0.073 -0.0896,0.073 0,-0.0372 0.0179,-0.073 0.0717,-0.091 m -0.32246,0.3955 c 0.0165,0 0.0165,0 0.0165,-0.0193 h 0.0193 c -0.0193,0.0193 -0.0193,0.0193 -0.0358,0.0193 m 0.0717,-0.0372 c 0,-0.0179 -0.0193,-0.0524 -0.0193,-0.0703 0,-0.0717 0.073,-0.10886 0.12678,-0.14332 0,0.0345 0.0179,0.0538 0.0179,0.0717 0,0.0717 -0.16123,0.2508 -0.21635,0.30592 l -0.0166,-0.073 c 0,-0.0179 0.0166,-0.0372 0.0358,-0.0537 l 0.0165,0.0358 z m -0.18052,0.28939 c 0,-0.0193 0,-0.0193 0.0358,-0.0372 v 0.0372 z m -0.41204,0.96738 0.0358,-0.073 -0.0358,-0.0165 c 0.0537,-0.0537 0.0896,-0.14332 0.16123,-0.161231 l -0.0358,-0.0551 c 0.0358,-0.0896 0.23427,-0.268719 0.23427,-0.376199 v -0.0179 c 0.0524,-0.0358 0.19706,-0.17914 0.19706,-0.2508 h -0.0193 c -0.0165,0 -0.0165,0 -0.0165,-0.0165 0,0 0.16123,-0.21635 0.19705,-0.3073 0,-0.19568 0.30455,-0.26872 0.30455,-0.46578 h -0.0358 c 0.0896,-0.0717 0.44925,-0.44786 0.46716,-0.50161 l -0.0179,-0.0179 v 0.0179 l -0.0717,-0.0179 -0.0551,0.0179 c 0,-0.1254 0.14469,-0.21635 0.25218,-0.2508 l -0.0179,-0.0179 c 0.0896,-0.14332 0.21497,-0.32384 0.41203,-0.32384 l 0.0179,0.0179 h -0.0179 c 0.0179,0 0.0179,0.0179 0.0358,0.0179 0.14332,0 0.28663,-0.0717 0.42995,-0.0717 0.19706,0 1.05971,0.0896 1.05971,0.70005 -0.0551,0.0524 -0.0551,0.10748 -0.0551,0.16123 l 0.0193,0.0179 0.0358,-0.0717 c 0.0344,0.0717 0.0344,0.1254 0.0344,0.17777 0,0.091 -0.0165,0.19843 -0.0165,0.28801 0,0.0537 0.0358,0.12678 0.0358,0.19844 0,0.28663 -0.0717,0.5016 -0.14469,0.78823 -0.0896,0.26872 -0.86127,1.70463 -1.32706,1.70463 -0.0716,0 -0.10748,-0.0179 -0.14331,-0.0537 -0.0179,0.0179 -0.0358,0.0358 -0.0537,0.0358 -0.0717,0 -0.1254,-0.0358 -0.16123,-0.0717 l 0.0179,-0.0358 c -0.0551,-0.0358 -0.1254,-0.0358 -0.17915,-0.0358 l -0.0358,-0.0372 -0.0179,0.0193 c -0.0358,-0.14469 -0.25217,-0.21497 -0.25217,-0.26871 0,-0.0372 0.0358,-0.0717 0.0537,-0.0896 0.0537,0.0179 0.10886,0.0524 0.16261,0.0703 0.21359,0 0.39411,-0.26871 0.46577,-0.44786 0.21498,-0.0717 0.62701,-0.86127 0.62701,-1.07625 l -0.0345,-0.0896 c 0,0 0.16123,-0.51952 0.1254,-0.48369 0.0358,-0.10886 0.0358,-0.21635 0.0537,-0.32384 v -0.091 c 0,-0.0882 0.0537,-0.15985 0.0537,-0.23289 0,-0.0524 -0.0358,-0.0703 -0.0358,-0.14194 l 0.0179,-0.0179 c -0.0179,-0.0372 -0.0358,-0.0717 -0.0896,-0.0717 -0.0193,0 -0.0909,0.0179 -0.10886,0.0179 -0.46578,0.37483 -1.30914,1.72118 -1.30914,1.72118 0,0.0179 0.0179,0.0358 0.0179,0.0551 0,0.15985 -0.35829,0.59118 -0.35829,0.71658 -0.21497,0.32246 -0.35829,0.70004 -0.43132,1.07624 -0.12403,0.53744 -0.34038,1.14791 -0.34038,1.70464 0.19844,0.17914 0.0537,0.41203 0.21635,0.59118 0.46578,0.44786 0.6091,0.70004 1.41663,0.70004 0.39412,0 0.93293,-0.322458 1.18373,-0.574638 0.1254,0 0.53881,-0.592562 0.61047,-0.609092 0,0.0717 0,0.0896 -0.0193,0.14331 l 0.0372,0.0717 -0.0537,0.0896 0.0358,0.0358 0.0179,-0.0537 0.10749,0.0537 c -0.0179,0.0358 -0.0179,0.091 -0.0179,0.1254 l 0.0717,0.0179 0.0345,-0.0524 0.0179,0.0165 c -0.0524,0.0537 -0.12402,0.16123 -0.12402,0.23289 l 0.0344,0.01791 0.0896,-0.0537 -0.10611,0.21635 c 0,0 0.0165,0.0358 0.0165,0.0524 0,0.2701 -1.03904,0.773081 -1.30914,0.773081 -0.26872,0 -0.53606,0.0524 -0.80615,0.0524 -0.32384,0 -1.30914,-0.30317 -1.61506,-0.574641 -0.41203,-0.376198 -0.80753,-0.788228 -0.80753,-1.182348 0,-0.0538 0.0358,-0.12541 0.0358,-0.18053 0,-0.0179 -0.0179,-0.0358 -0.0179,-0.0716 l 0.0358,-0.0358 c 0,-0.0537 -0.0179,-0.0716 -0.0179,-0.1061 0,-0.37759 0.1254,-0.80753 0.19843,-1.18374 0.14332,-0.0551 0.16124,-0.14332 0.16124,-0.27009 0,-0.0179 -0.0179,-0.0358 -0.0358,-0.0358 0.0179,-0.0538 0.0538,-0.68213 0.30454,-0.80753 0.0717,-0.10749 0.1254,-0.23289 0.19707,-0.34038"
         id="path849" />
      <path
         style="fill:#f0ab35;fill-opacity:1;fill-rule:nonzero;stroke:none;stroke-width:0.352777"
         d="m 149.18247,3.4842301 v 0.0179 l 0.0179,-0.0179 z m -1.68534,3.49746 c -0.0537,0 -0.0537,0 -0.0537,0.0179 z m -0.0717,0 c 0,0.0179 0,0.0179 0.0179,0.0179 0,-0.0179 0,-0.0179 -0.0179,-0.0179 m -0.0179,-0.62839 c 0.0179,0 0.0179,0 0.0179,-0.0165 z m -0.0896,2.871841 h 0.0179 c 0,-0.01929 -0.0179,-0.01929 -0.0358,-0.01929 0,0 0,0.01929 0.0179,0.01929 m -0.7717,-1.776291 c 0.0179,0.0179 0.0358,0.0179 0.0537,0.0179 -0.0179,-0.0179 -0.0179,-0.0179 -0.0358,-0.0358 z m 0.87918,-0.86128 0.0717,-0.0896 -0.0358,-0.0358 0.0537,-0.0179 -0.0179,-0.0537 c 0.0179,-0.0372 0.0179,-0.0717 0.0179,-0.10749 l -0.0717,0.0358 0.0179,0.0717 -0.0179,0.0358 -0.0358,-0.0551 c -0.0358,0.12678 -0.39549,0.50436 -0.50298,0.62839 h 0.0179 c -0.14469,0.1254 -0.17914,0.34037 -0.32246,0.46715 -0.27009,0.28663 -0.57464,0.483701 -1.00321,0.483701 -0.28801,0 -0.75379,-0.555351 -0.75379,-0.806161 0,-0.073 0.0165,-0.14469 0.0882,-0.17914 l -0.0717,0.0165 c -0.0165,-0.0358 -0.0165,-0.0717 -0.0165,-0.1061 0,-0.25218 0.0703,-0.522281 0.10611,-0.789621 0.0358,0.106111 0.0358,0.21498 0.0358,0.322461 0.0358,-0.73449 0.75379,-1.418 0.84336,-2.08084 l -0.0179,-0.0179 c 0,-0.0716 0.1254,-0.14331 0.14331,-0.21497 l -0.0179,-0.0193 c -0.0717,0.091 -0.1254,0.16261 -0.17914,0.23427 l 0.0179,0.0179 c -0.0538,0.44924 -0.3762,0.41203 -0.3762,0.7717 v 0.0165 c 0,0.0551 -0.0358,0.10886 -0.0896,0.10886 l -0.0717,-0.0358 0.0717,-0.0896 0.0179,0.0166 c 0.0717,-0.44786 0.42994,-0.69867 0.44786,-0.91364 l 0.14332,-0.21498 -0.0358,-0.0372 c 0.0537,-0.0179 0.0909,-0.0345 0.1254,-0.0345 0.0909,0 0.14331,0.0524 0.14331,0.12402 l 0.0372,-0.0165 0.0703,0.0717 c 0,-0.0358 0.0372,-0.0551 0.0717,-0.0717 0.0551,0.0524 0.25218,0.2508 0.25218,0.32246 0,0.43133 -0.46577,0.7345 -0.46577,1.14791 l 0.0165,0.0179 c -0.0165,0.16261 -0.10749,0.34175 -0.15985,0.48507 l 0.0165,-0.0193 -0.0358,0.0717 v 0.0193 c 0,0.14194 -0.0717,0.41204 -0.19706,0.51952 l 0.0358,0.0896 c -0.0717,0.0717 -0.0717,0.18053 -0.0717,0.25081 v 0.14331 c 0,0.10749 0,0.23289 0.0358,0.23289 0,0 0.34175,-0.44648 0.46715,-0.44648 0,-0.0193 -0.0179,-0.0372 -0.0179,-0.0537 0,-0.16261 0.34038,-0.30593 0.34038,-0.41342 l -0.0179,-0.0372 0.0717,-0.0896 0.0179,0.0193 -0.0179,-0.0193 0.0537,-0.1254 -0.0358,-0.0179 c 0.0165,-0.0524 0.35829,-0.32246 0.35829,-0.41203 l -0.0358,-0.0165 0.0358,-0.0179 v -0.0193 c 0,-0.250801 0.35966,-0.304541 0.35966,-0.682121 l 0.0537,-0.0179 -0.0179,-0.0524 v -0.0179 c 0.69867,-0.25218 0.62839,-1.65089 1.2554,-1.65089 l 0.0717,0.0372 h 0.0179 l 0.0358,0.0165 0.0717,-0.0165 c 0.19706,0 0.30454,0.0165 0.39412,0.21359 0,0.0372 -0.0179,0.0717 -0.0358,0.0896 l 0.0179,0.0358 c -0.0896,0.21635 -0.28664,1.31052 -0.48369,1.34497 l 0.0358,0.0358 c -0.0896,0.25218 -0.35967,0.87919 -0.35967,1.1479 v 0.0358 c 0,0.0358 0,0.10887 -0.0179,0.1447 l 0.0179,0.0179 c 0,0.0716 -0.0344,0.0716 -0.0896,0.0896 l 0.0179,0.10749 v 0.0179 l -0.0179,0.1254 c -0.0882,0.46716 -0.14331,0.96876 -0.21359,1.434542 l 0.0179,0.073 -0.0372,0.0345 c 0,0.0717 0.0193,0.108861 0.0193,0.162611 0,0.0358 0,0.0703 -0.0193,0.107479 0.0193,0.0538 0.0193,0.0896 0.0193,0.161229 v 0.0896 l -0.0193,0.0537 c 0.0372,0.0358 0.0537,0.0896 0.0537,0.161229 0,0.10749 -0.0344,0.232892 -0.0344,0.30593 0,0.17776 0.23151,0.286631 0.23151,0.55535 l -0.0537,0.0537 0.0179,0.0358 -0.0703,0.0358 h -0.0372 l -0.0703,0.0551 -0.073,-0.0372 -0.0345,0.0372 c -0.0551,-0.0372 -0.43133,-0.144701 -0.43133,-0.21635 v -0.01791 c -0.2508,-0.0896 -0.23289,-0.50161 -0.26872,-0.50161 l -0.0551,0.0358 c 0,-0.0717 0.0551,-0.143319 0.10887,-0.19844 h -0.0537 l -0.0551,-0.01791 v 0.073 l -0.0358,-0.073 0.091,-0.0717 -0.091,0.01791 0.0358,-0.0358 c 0,-0.0717 -0.0165,-0.125413 -0.0358,-0.197073 l 0.0358,-0.0358 -0.0358,-0.01791 0.0358,-0.0358 -0.0358,-0.0717 -0.0358,0.01791 c 0.0179,-0.01791 0.0358,-0.0358 0.0717,-0.0717 -0.0165,-0.01791 -0.0358,-0.143312 -0.0358,-0.107493 0,-0.107479 0.0193,-0.252179 0.0193,-0.395488 0,-0.0537 -0.0193,-0.106111 -0.0193,-0.141941 h 0.091 c -0.0372,-0.01929 -0.0551,-0.073 -0.0551,-0.126781 0,-0.0717 0.0551,-0.16123 0.0551,-0.23289 l -0.0551,-0.0179 c 0.10886,-0.17915 0.10886,-0.30593 0.14469,-0.48507 l -0.0179,-0.0537 0.0179,-0.0358 -0.0179,-0.10611 c 0.0358,0 0.0537,-0.0179 0.0537,-0.0551 l -0.0358,-0.0345 0.0537,-0.073 -0.0537,-0.0537 0.0537,-0.0358 z m 0,0"
         id="path851" />
      <path
         style="fill:#f0ab35;fill-opacity:1;fill-rule:nonzero;stroke:none;stroke-width:0.352777"
         d="m 151.60368,1.9063801 c -0.17914,0 -0.30454,-0.0717 -0.30454,-0.2701 0,-0.0717 0,-0.16123 0.0537,-0.21497 0,-0.0179 -0.0179,-0.0358 -0.0179,-0.0538 0,-0.12677 0.19705,-0.21497 0.30454,-0.21497 0.32246,0 0.66422,0.2508 0.66422,0.55535 0,0.16261 -0.14332,0.34175 -0.32384,0.34175 -0.12403,0 -0.14332,-0.14331 -0.37621,-0.14331 m -1.57647,5.73953 -0.0207,-0.0717 -0.0524,0.0537 0.0524,0.0537 z m -0.0923,0.26871 c -0.0179,0.01791 -0.0345,0.01791 -0.0717,0.0358 l 0.0537,0.0358 0.0372,-0.0537 z m -0.66284,0.0551 c 0.0537,-0.413409 0.21497,-0.898479 0.21497,-1.310509 0,-0.1254 0.10749,-0.14332 0.1447,-0.23289 l -0.0551,-0.1254 c 0.0179,-0.0551 0.073,-0.10887 0.14469,-0.16261 l -0.0717,-0.1254 c 0.0165,-0.14332 0.10749,-0.1254 0.14332,-0.44649 0.0179,-0.0744 0.10748,-0.12677 0.12402,-0.21635 l -0.0537,-0.0896 c 0.0717,-0.53881 0.82544,-2.11529 0.82544,-2.42121 0,-0.1254 0.0717,-0.21635 0.23427,-0.21635 0.34175,0 0.68075,0.2508 0.68075,0.57464 0,0.2508 -0.23289,0.42995 -0.23289,0.57326 -0.0537,0.3955 -0.28801,0.71796 -0.39412,1.09416 -0.0358,0.091 -0.25218,0.82683 -0.32384,0.88057 l -0.0179,0.10749 -0.0537,0.0882 c 0,0.0551 0.0179,0.10749 0.0179,0.1447 0,0.0524 -0.10748,0 -0.10748,0.0882 l 0.0179,-0.0165 0.0717,0.0703 c -0.0179,0.073 -0.0717,0.18053 -0.14332,0.23427 0,0.0537 0.0537,0.0358 0.0537,0.0896 0,0.32384 -0.17914,0.73588 -0.23289,1.05834 v 0.0537 c 0,0.0551 -0.0896,0.1254 -0.0896,0.16123 0,0.0551 0.0358,0.10749 0.0358,0.144688 0,0.0358 0,0.0358 -0.0179,0.0524 l 0.0537,0.0358 c 0.17915,0 0.7717,-0.7345 0.89573,-0.91364 0.30592,-0.50298 2.13595,-2.38676 2.1897,-2.5287 0.0358,-0.18052 0.2508,-0.37758 0.46578,-0.37758 0.0372,0 0.0372,0.10748 0.0372,0.17914 v 0.10749 c 0,0.0524 -0.1254,0.14331 -0.1254,0.25218 0,0 0,0.0179 0.0165,0.0358 -0.0537,0.28663 -1.93615,1.93614 -2.29582,2.31235 -0.17914,0.17914 -0.32246,0.41341 -0.46577,0.61047 l 0.0179,0.0358 c 0.39411,0 0.87919,-1.16582 1.34496,-1.40009 l 0.0179,0.0372 c -0.0179,0.16123 -0.8971,1.45245 -1.07487,1.667421 -0.28801,0.359669 -0.71933,0.753789 -1.14928,0.753789 -0.26872,0 -0.53881,-0.143322 -0.70005,-0.32246 -0.17914,-0.14332 -0.0896,-0.34176 -0.15985,-0.537441 z m 0,0"
         id="path853" />
      <path
         style="fill:#f0ab35;fill-opacity:1;fill-rule:nonzero;stroke:none;stroke-width:0.352777"
         d="m 159.03131,-0.4624699 c -0.0372,0.1254 -0.14469,0.28801 -0.14469,0.41341 h 0.0179 c 0.0358,0 0.16123,-0.2701 0.16123,-0.32246 0,-0.0179 -0.0179,-0.0717 -0.0345,-0.0909 m -0.18052,0.59256 -0.0179,-0.0179 -0.0179,0.0909 0.0179,0.0165 z m -0.0358,-0.70005 0.0179,-0.0358 h -0.0896 z m -0.0717,-1.25539 c 0.0717,-0.16123 0.14331,-0.41203 0.26871,-0.55535 l 0.0193,0.0345 c 0,0.0896 -0.16261,0.44923 -0.19844,0.53881 z m 0.0717,2.18832 c -0.0358,-0.0358 -0.0896,-0.0537 -0.14332,-0.0537 v 0.0358 l 0.0717,0.0537 h 0.0537 z m -0.17914,-1.75837 c 0,-0.0717 0,-0.19568 0.10749,-0.19568 -0.0179,0.0703 0,0.17914 -0.0896,0.19568 z m -0.10749,1.02388 c 0,0.0179 0,0.0345 0.0179,0.0345 l 0.0358,-0.0165 h -0.0358 z m 0,0.59118 0.0537,-0.0165 c 0,-0.0193 0,-0.0909 -0.0717,-0.0909 l -0.0358,0.0358 c 0,0.0358 0.0358,0.0551 0.0537,0.0717 m -0.0537,-1.22094 c 0.0165,-0.0896 0.0358,-0.17777 0.10748,-0.24943 l 0.0358,0.0165 c 0,0.091 -0.0358,0.18052 -0.10748,0.23289 z m 0.32246,1.84932 c -0.0537,-0.073 -0.0537,-0.16123 -0.10749,-0.23426 -0.10749,0.073 -0.0179,0.21497 -0.17914,0.28663 v 0.0372 c -0.0193,0.0358 -0.0717,0.0896 -0.0717,0.1254 0,0.0537 0.0524,0.19706 0.0717,0.21497 l -0.0193,0.0896 0.0193,0.0358 c 0.0896,0 0.19706,-0.23289 0.19706,-0.28663 0,-0.0358 -0.0537,-0.0896 -0.0896,-0.1254 0.0179,-0.0537 0.0537,-0.12678 0.1254,-0.12678 z m -0.34037,-1.72255 c -0.0179,0 -0.0179,-0.0179 -0.0179,-0.0179 z m 0.0538,2.5108 c 0,-0.0358 -0.10887,-0.10749 -0.16261,-0.14331 v 0.0179 c 0,0.0358 0,0.0537 0.0179,0.0896 0,0.0358 -0.0179,0.0896 -0.0358,0.10748 l 0.0179,0.0372 c 0,0.32247 -0.23152,0.28526 -0.23152,0.75241 0,0.0537 0.0179,0.0717 0.0179,0.1254 0.17777,-0.16123 0.15986,-0.75378 0.37621,-0.89572 z m -0.37621,2.2779 -0.0358,-0.0345 v 0.0165 c 0,0 0,0.0358 0.0179,0.0358 z m -0.073,-2.31373 c 0,0.0179 0.0179,0.0358 0.0372,0.0537 0.0524,-0.0179 0.0524,-0.0896 0.0524,-0.14332 l -0.0345,-0.0358 c -0.0179,0.0358 -0.0551,0.0717 -0.0551,0.1254 m -0.0165,2.34956 0.0537,-0.0179 h -0.0537 z m -0.16261,0.46715 -0.0537,-0.0372 c 0,-0.0345 0.0179,-0.0345 0.0537,-0.0524 z m 0.0717,-1.39871 c -0.0179,-0.0551 -0.0717,-0.10748 -0.14331,-0.10748 l -0.0344,0.0358 c 0,0.0345 0.0344,0.0717 0.0524,0.0882 l -0.0179,0.0896 z m -0.14331,0.10611 -0.0717,0.0207 v 0.0345 c 0,0.0179 0.0372,0.0179 0.0717,0.0179 z m -0.16123,0.6463 h -0.0372 c 0,0 0,0.0179 0.0193,0.0179 0,-0.0179 0.0179,-0.0179 0.0179,-0.0179 m -0.12541,-0.10749 -0.0179,-0.0179 c 0,0.0179 -0.0179,0.0179 -0.0179,0.0372 v 0.0165 z m -0.0179,-1.25401 -0.0179,-0.0193 0.0179,-0.0179 0.0179,0.0372 z m -0.0358,0.2136 c 0.0179,-0.0537 0,-0.14332 0.0358,-0.2136 0,0.0345 0,0.0703 0.0179,0.0882 0,0.0537 0,0.10748 -0.0358,0.14331 z m -0.0179,2.09875 -0.0358,0.0179 v 0.073 c 0,0 0.0537,-0.0358 0.0537,-0.0551 z m -0.10749,1.25539 c -0.0179,0.0909 -0.0179,0.16123 -0.0179,0.23289 -0.0179,0 -0.0372,0 -0.0372,-0.0358 0,-0.0358 0.0193,-0.17777 0.0372,-0.19706 z m -0.0909,0.44924 c 0.0179,0 0.0551,0 0.0551,0.0358 0,0.0179 0,0.0358 -0.0193,0.0358 -0.0358,0 -0.0358,-0.0537 -0.0358,-0.0717 m 0.0551,-2.99585 -0.0551,-0.0179 v 0.0358 c 0.0179,0 0.073,-0.73588 0.21636,-0.73588 0.0179,0 0.0179,0.0551 0.0179,0.0717 0,0.19706 -0.14332,0.42995 -0.16123,0.628389 z m -0.0551,3.15708 c 0.0551,0 0.0358,0.0538 0.0551,0.0717 l -0.14469,0.0537 0.073,-0.0716 c 0,0 0.0165,-0.0358 0.0165,-0.0538 m -0.0896,-2.36747 v 0.0179 z m 0,5.757449 v -0.0538 c -0.0179,-0.01791 -0.0358,-0.01791 -0.0537,-0.01791 0,0.0358 0,0.1074899 0.0179,0.1446899 l 0.0358,-0.01931 z m 0.0179,-2.960029 c 0,0.0358 -0.0179,0.0358 -0.0358,0.0537 l -0.0358,-0.0717 0.0358,-0.0179 z m -0.0179,0.23289 h 0.0179 c 0.0717,0 0.0717,0.0537 0.0717,0.0896 0,0.0372 0,0.2701 -0.0896,0.2701 -0.0358,0 -0.0717,-0.0179 -0.0717,-0.0358 v -0.0537 c 0,-0.0717 0.0537,-0.21636 0.0717,-0.2701 m -0.0896,0.950841 -0.0179,-0.0358 c 0,-0.0703 0.0358,-0.141941 0.0358,-0.214979 0,0 0.0717,0 0.0717,0.01791 -0.0179,0.0896 -0.0717,0.143319 -0.0896,0.232889 m 0.0537,0.18052 v 0.179152 c -0.0537,0 -0.10749,-0.0537 -0.10749,-0.125402 0,-0.0717 0.0358,-0.10749 0.0717,-0.162611 l 0.0179,0.01791 c 0.0179,0.0372 0.0179,0.073 0.0179,0.091 m -0.0717,-2.565898 -0.0358,-0.0358 v -0.0179 0.0179 c 0,0 0.0358,0.0179 0.0537,0.0179 z m -0.0358,1.16581 v 0.0179 l -0.0358,0.0179 c -0.0165,0 -0.0165,-0.0179 -0.0358,-0.0179 z m -0.10749,0.80754 c 0.0179,-0.0538 0.0717,-0.0538 0.10749,-0.0538 0.0358,0 0.0537,0.0179 0.0717,0.0179 l 0.0179,0.0358 -0.14194,0.0179 -0.0372,-0.0179 z m 0.12678,1.903069 c 0,-0.01929 -0.0193,0 -0.0193,-0.0372 l -0.1254,0.01791 0.1254,0.01929 z m -0.14469,-1.75976 c 0,-0.01791 0,-0.01791 0.0179,-0.0358 l 0.0179,0.01791 z m -0.0193,-0.788239 c 0.0193,-0.0193 0.0193,-0.0372 0.0193,-0.0551 0,0.0179 0,0.0551 0.0179,0.0551 l -0.0179,0.0165 z m 0,2.224159 h -0.0165 l 0.0165,-0.01931 z m -0.0165,-2.458419 0.0358,-0.0717 c 0.0179,0.0193 0.0358,0.0372 0.0358,0.0537 l -0.0358,0.073 z m -0.0896,-2.2779 0.0165,-0.0717 0.073,0.0179 c 0,0.0372 -0.0179,0.0537 -0.073,0.0537 z m 0,0.35829 -0.0179,0.0372 0.0717,0.0345 h 0.0179 c 0,-0.0345 -0.0551,-0.0717 -0.0717,-0.0717 m -0.0358,3.964594 v -0.01791 0.0717 c -0.0179,0 -0.0179,-0.01651 -0.0179,-0.01651 z m -0.0179,-0.107489 0.0358,-0.0716 0.0179,0.01791 -0.0358,0.0717 z m 0.0179,-0.214969 c 0,-0.01791 0,-0.01791 -0.0179,-0.01791 0,-0.01791 0,-0.01791 0.0179,-0.01791 0,0.01791 0,0.01791 0.0179,0.01791 z m -0.0179,0.644919 h -0.0358 c 0.0179,-0.01651 0.0179,-0.0345 0.0358,-0.0524 l 0.0358,0.0358 c 0,0.01651 -0.0179,0.01651 -0.0358,0.01651 m -0.25218,-4.215419 v 0.0551 l -0.0165,-0.0372 z m 0,-0.19706 c 0,0.0551 -0.0165,0.10749 -0.0882,0.10749 0,-0.0524 0,-0.10749 0.0882,-0.10749 m -0.24943,0.28801 c 0.0179,-0.0193 0.0179,-0.0358 0.0358,-0.073 l 0.0179,0.0537 z m -0.59255,1.43454 -0.0358,-0.0179 v 0.0537 z m 0,-0.78962 0.0537,0.0551 c -0.0372,0.0345 -0.0896,0.0345 -0.10887,0.0703 l -0.0165,-0.0538 z m -0.32246,0.7717 -0.0179,-0.0358 -0.0179,0.0358 z m -0.28664,0 -0.0538,0.0538 0.0165,0.0537 0.0717,-0.0358 z m -0.10886,0.14332 c -0.0358,0 -0.0358,0 -0.0358,0.0179 l 0.0193,0.0179 z m -0.64492,0.53743 0.0165,-0.0165 h -0.0165 z m -0.3955,0.30593 -0.0537,0.0179 0.0537,0.0537 0.0358,-0.0358 c -0.0179,-0.0179 -0.0179,-0.0179 -0.0358,-0.0358 m -0.60909,-1.05834 c 0,0.0179 0,0.0537 0.0179,0.0717 h 0.0179 c 0,-0.0537 0,-0.0358 -0.0358,-0.0717 m 0.41203,-1.27331 h -0.0358 c 0,-0.0179 0.0537,-0.0717 0.073,-0.0717 l 0.0703,-0.1447 c 0.10749,-0.14331 0.21497,-0.30454 0.2701,-0.44786 l -0.0372,-0.0358 c -0.0537,0.0358 -0.44787,0.71796 -0.82545,1.23748 0.0179,0.0179 0.0179,0.0358 0.0179,0.0537 0,0.0538 -0.0537,0.0717 -0.1061,0.10749 l 0.0882,0.073 0.073,-0.0358 c 0.1254,-0.25218 0.17914,-0.53881 0.41203,-0.73588 m -0.50298,1.61369 h -0.0179 c -0.0524,0 -0.0717,0.0896 -0.0717,0.14331 l 0.0193,0.0717 c 0.0524,-0.0537 0.0882,-0.10749 0.1061,-0.16123 z m -0.0703,0.0193 c -0.0193,-0.0372 -0.0717,-0.073 -0.10887,-0.073 v 0.073 z m -0.34176,0.28664 v -0.0551 c -0.0358,0 -0.0717,0.0358 -0.0717,0.0551 v 0.0165 c 0.0358,0 0.0717,-0.0165 0.0717,-0.0165 m 0.0537,-0.62839 c 0,0.0896 0.0896,0.16123 0.0896,0.2508 -0.0703,0 -0.14331,0.0372 -0.16123,0.091 h -0.0537 l -0.0537,-0.0193 c 0.0537,-0.10749 0.28801,-0.77033 0.3583,-0.77033 l 0.0896,0.0703 c -0.0896,0.0717 -0.26872,0.32383 -0.26872,0.37758 m 5.79465,-6.54706 c 0.0537,-0.0372 0.0717,-0.10749 0.0717,-0.18053 0,-0.0358 0,-0.0703 -0.0537,-0.0703 -0.0179,0 -0.0717,0.0524 -0.0896,0.0703 0.0717,-0.14194 0.10749,-0.94946 0.26872,-0.94946 0.19706,0 0.0358,-0.19844 0.17915,-0.23427 -0.0717,-0.0165 -0.0896,-0.0717 -0.10749,-0.1254 0.0717,-0.34038 0.30455,-0.62701 0.30455,-0.91502 0,-0.0358 -0.10749,-0.14332 -0.10749,-0.2508 0,-0.0896 0.1254,-0.35967 0.23288,-0.35967 0.10887,0 0.1447,0.14469 0.19707,0.14469 0.0193,-0.0179 0.0717,-0.0524 0.10749,-0.0524 0.073,0.0345 0.12677,0.12402 0.18052,0.17777 0.0717,0 0.0717,-0.16123 0.1254,-0.16123 0.19706,0 0.0896,0.14331 0.16123,0.14331 0,0 0.0358,-0.0358 0.0358,-0.0537 v -0.0179 c 0.0551,0 0.1626,0.107479 0.26872,0.107479 0.0179,0 0.0372,-0.0179 0.0372,-0.0179 l 0.0717,0.0179 -0.0372,0.0896 c 0.0179,0.0358 0.0372,0.125411 0.0372,0.16124 0,0.091 -0.10887,0.0717 -0.10887,0.16123 0,0.0537 0.0372,0.14331 0.0372,0.198431 0,0.0896 -0.23426,0.21498 -0.2508,0.42995 -0.0551,0.14332 -0.10886,0.431329 -0.23427,0.538809 -0.14331,0.143321 -0.10748,0.68076 -0.30592,1.0046 v 0.0358 c 0,0.0358 -0.0179,0.0896 -0.0358,0.124029 l 0.0179,0.0372 c -0.0703,0.0537 -0.10748,0.16123 -0.10748,0.23289 0,0.0358 0.0193,0.0896 0.0193,0.14332 0,0.0717 -0.0193,0.10748 -0.0537,0.10748 l -0.0358,-0.0179 c -0.0358,0.0882 -0.18053,0.34038 -0.18053,0.41204 0,0.431319 -0.2508,0.6463 -0.2508,0.879189 0,0.0537 0.0179,0.107481 0.0179,0.144691 0,0.1254 -0.10749,0.19568 -0.10749,0.2508 l 0.0193,0.0717 c 0,0.0896 -0.25218,0.73449 -0.25218,0.89848 0,0.0524 0.0179,0.10611 0.0179,0.15985 0,0.0358 0,0.0896 -0.0179,0.14332 v 0.0179 c 0,0.10749 -0.25218,0.322459 -0.25218,0.57327 l 0.0193,0.0551 -0.0193,0.0537 c 0,0.0537 0.0372,0.1254 0.0372,0.17915 0,0.287999 -0.28663,0.30454 -0.28663,0.86127 0,0.0896 0.0344,0.17914 0.0344,0.28663 0,0.16123 -0.15985,0.35829 -0.15985,0.5209 0,0.0358 0.0537,0.0717 0.0717,0.0717 0,0.0524 -0.0551,0.0703 -0.0551,0.12402 0,0.0179 0.0179,0.0717 0.0372,0.0909 -0.0372,0.107491 -0.073,0.214981 -0.073,0.322461 0,0.0358 0.0193,0.0717 0.0193,0.10749 0,0.232889 -0.12678,0.28663 -0.12678,0.35829 0,0.073 0.0358,0.14469 0.0358,0.21635 0,0.0358 -0.0179,0.0717 -0.0717,0.14332 0,0.0717 0.0358,0.10748 0.0358,0.16123 0,0.0717 -0.0537,0.12678 -0.0537,0.17914 0,0.0179 0.0358,0.161231 0.0537,0.179151 -0.0358,0.0358 -0.0358,0.073 -0.0358,0.107479 v 0.091 c 0,0.304538 -0.0717,0.574638 -0.0717,0.859888 v 0.21635 c 0,0.0717 0,0.143322 -0.0896,0.2136 l 0.0551,0.073 c -0.0193,0.0537 -0.0193,0.286628 -0.0193,0.35828 0,0.01791 0.0193,0.0537 0.0537,0.0717 -0.0344,0.01791 -0.0344,0.0717 -0.0344,0.0896 0,0.19844 0.10611,0.431331 0.10611,0.502991 0,0.0537 -0.0358,0.0896 -0.0358,0.1254 0,0.0717 0.0358,0.161229 0.0358,0.214971 -0.0537,0.0717 -0.16123,0.143319 -0.25081,0.143319 -0.073,0 -0.1254,-0.01791 -0.14331,-0.0537 -0.0358,0.0358 -0.0537,0.0358 -0.0717,0.0358 -0.10749,0 -0.17915,-0.162608 -0.28801,-0.162608 l -0.0537,0.0372 c -0.30455,0 -0.35829,-0.698659 -0.35829,-0.824058 0,-0.0537 0.0179,-0.1984394 0.0538,-0.2521794 0.0165,0.0896 0.16123,0.125399 0.16123,0.2149684 0,0.0896 -0.0358,0.21635 -0.0358,0.340381 0,0.0896 0.0179,0.161229 0.073,0.21635 l 0.0882,-0.01791 c -0.0358,-0.0372 -0.0717,-0.179149 -0.0717,-0.25219 0,0 0.0358,-0.0524 0.0358,-0.0703 0,-0.0717 -0.0896,-0.2521784 -0.0896,-0.3596574 0,-0.161229 0.0537,-0.34176 0.0537,-0.501611 0,-0.0909 -0.0358,-0.18052 -0.0358,-0.270089 0,-0.143319 0.10748,-0.250812 0.10748,-0.394121 h 0.0179 c 0.0358,0 0.0716,0.179139 0.0716,0.304541 0,0.0717 -0.0179,0.10749 -0.0179,0.12541 v 0.558099 c 0.0358,-0.108871 0.10887,-0.217728 0.10887,-0.32384 l -0.0551,-0.0717 c 0,-0.0358 0.0551,-0.0716 0.0551,-0.125402 -0.0551,-0.01789 -0.0551,-0.0551 -0.0551,-0.091 0,-0.143312 0.0896,-0.35691 0.14469,-0.429951 -0.0372,-0.01791 -0.073,-0.0716 -0.073,-0.125399 0,-0.143312 0.073,-0.305922 0.0909,-0.449241 -0.0179,-0.0703 -0.0358,-0.143309 -0.0358,-0.21497 0,-0.0358 0,-0.0896 0.0179,-0.14194 0,-0.073 0,-0.34175 0.0896,-0.37896 -0.0358,-0.0524 -0.0538,-0.0896 -0.0538,-0.12402 0,-0.0551 0,-0.10887 0.0538,-0.1447 0,-0.10611 -0.0358,-0.19568 -0.0358,-0.28663 0,-0.0896 0.0358,-0.17914 0.0896,-0.30455 l 0.0179,0.0179 c 0.0538,0 0.0703,-0.0717 0.0703,-0.12679 0,-0.0524 -0.0703,-0.0882 -0.0703,-0.16123 0,-0.17776 0.0703,-0.3762 0.17915,-0.51814 0,-0.0909 -0.0179,-0.19844 -0.0179,-0.27009 0,-0.1254 0.30454,-0.82545 0.30454,-1.07625 0,-0.0717 -0.0537,-0.10749 -0.1254,-0.14332 -0.0896,0 -0.14469,0.23289 -0.16123,0.28664 v 0.0358 c 0,0.12541 -0.17914,0.37759 -0.17914,0.57465 0,0.0345 0.0537,0.0716 0.0537,0.10748 -0.0179,0.0537 -0.0717,0.17915 -0.1254,0.17915 l -0.0538,-0.0538 c 0,-0.0896 0.0538,-0.27009 0.0896,-0.34175 l -0.0358,-0.0703 c -0.0358,0.0524 -0.12678,0.14194 -0.12678,0.19706 0,0.0165 0.0372,0.0165 0.0372,0.0358 -0.0179,0.0358 -0.073,0.0537 -0.073,0.10749 0,0.0179 0.0179,0.0537 0.0179,0.0716 0,0.0179 -0.0179,0.0358 -0.0345,0.0717 l 0.0717,0.16261 c 0.0358,-0.0372 0.0537,-0.073 0.10748,-0.073 v 0.073 c 0,0.0345 0.0179,0.0703 0.0358,0.10749 0,0.0345 -0.0358,0.0717 -0.0896,0.0717 -0.0179,-0.0372 -0.0358,-0.091 -0.073,-0.10887 0,0.0551 -0.0358,0.0896 -0.1254,0.1254 l -0.10748,-0.0882 c 0.0179,-0.0372 0.0179,-0.0372 0.0179,-0.0551 0,-0.0524 -0.0538,-0.0524 -0.0538,-0.12541 h 0.0193 l -0.0193,-0.0179 0.0358,-0.0537 -0.0882,-0.1254 -0.0372,0.0537 c 0,0.0537 0.0179,0.10749 0.0896,0.14332 -0.25081,0.16123 -0.46578,0.39412 -0.61048,0.60909 v -0.0165 c -0.10748,0 -0.17776,0.483691 -0.35829,0.483691 -0.0358,0 -0.0717,-0.0179 -0.0896,-0.0179 l -0.0717,0.0537 c -0.14331,0.0358 -0.3762,0.25218 -0.42994,0.25218 -0.2701,0.46578 -0.68213,0.77032 -0.96877,1.165819 v 0.0345 c 0,-0.01651 -0.0537,0.01791 -0.0909,0.0372 l -0.14193,0.106108 c -0.16261,0.0896 -0.37759,0.21635 -0.57465,0.21635 -1.00459,0 -0.77032,-0.0896 -1.25539,-0.771697 0.0551,-0.10749 0.0896,-0.6463 0.17914,-0.68075 0.0537,0.0165 0.0717,0.0165 0.0896,0.0165 0.28664,0 0.2701,-0.64492 0.44787,-0.82406 0,-0.10887 -0.16123,-0.10887 -0.16123,-0.23427 0,-0.23151 0.43132,-0.53743 0.55672,-1.05833 0.0538,-0.28664 0.50299,-0.87781 0.7345,-1.09417 0.10886,-0.34037 0.5209,-0.35828 0.87918,-0.35828 h 0.21636 c 0.32246,0 0.70004,0.0716 0.77032,0.3762 l -0.0165,0.0179 c 0,0.073 0.10749,0.10749 0.10749,0.18052 0,0.21498 0.0524,0.42995 0.0524,0.64493 0,0.288 -0.50161,0.52089 -0.77033,0.52089 -0.073,0 -0.14331,-0.0193 -0.16123,-0.091 0.0882,-0.0345 0.0882,-0.10748 0.0882,-0.21497 v -0.0896 c 0,-0.0537 0,-0.0896 0.0193,-0.1254 -0.0193,-0.10749 -0.0896,-0.21498 -0.1254,-0.28664 -0.0537,0 -0.0909,0.0179 -0.14469,0.0537 v 0.0179 l -0.10611,0.14331 c -0.16117,0.216361 -0.21629,0.628391 -0.50293,0.789621 l -0.0165,0.0538 -0.25218,0.32246 c 0,0.23426 -0.37758,0.59255 -0.37758,0.7717 v 0.0716 c -0.0717,0.16124 -0.1254,0.268719 -0.2508,0.3955 l 0.0896,0.0524 c 0,0.126779 -0.0896,0.28663 -0.16261,0.413409 0.0193,0.0179 0.0551,0.0717 0.0923,0.0896 0.0703,-0.0896 0.17777,-0.1254 0.30316,-0.1254 l 0.0538,0.0358 c 0,0.0358 -0.0538,0.0537 -0.0717,0.0537 h -0.0537 c 0.0358,0.0537 0.16123,0.0717 0.19844,0.0717 0,0 0.10749,-0.0896 0.1254,-0.107489 0,-0.0179 0,-0.0537 -0.0537,-0.0537 -0.0179,0 -0.0358,0.0179 -0.0537,0.0179 v -0.073 c 0,-0.10611 0.0179,-0.14194 0.12403,-0.23289 l 0.0372,0.0372 -0.0372,0.0896 0.30592,-0.126779 c -0.0165,-0.0179 -0.0165,-0.0358 -0.0165,-0.0358 0,-0.0537 0.0882,-0.0537 0.0882,-0.0896 l -0.0882,-0.0716 c 0,-0.0345 0.0165,-0.0524 0.0524,-0.0524 0.28663,0 0.17915,-0.53881 0.55535,-0.53881 l 0.0179,0.0179 -0.0179,0.0896 0.0179,0.0179 c 0.0179,0 0.6463,-0.59118 0.68351,-0.66421 0.15985,0 0.10611,-0.39412 0.50161,-0.50161 0.0882,-0.14469 0.35829,-0.21635 0.35829,-0.43133 0,-0.0896 0.32246,-0.14331 0.32246,-0.35828 0,-0.0179 -0.0358,-0.12541 -0.0358,-0.19707 0,-0.0717 0.0358,-0.14331 0.10749,-0.14331 0.0358,0.0179 0.0358,0.0537 0.0358,0.0717 0.14469,-0.0537 0.10749,-0.1254 0.16261,-0.21498 -0.0551,-0.091 -0.16261,-0.21635 -0.16261,-0.30592 0,-0.0717 0,-0.17777 0.10749,-0.17777 l 0.0551,0.0345 c -0.0372,0.0537 -0.0372,0.10748 -0.0372,0.14331 l 0.0372,0.0717 0.10749,-0.0358 c -0.0179,-0.0358 -0.0717,-0.0717 -0.0717,-0.10749 0,-0.32246 0.34037,-0.66421 0.34037,-1.00459 v -0.0717 c 0.10749,0.0179 0.2508,0.0372 0.32246,0.14331 -0.0179,0 -0.0179,0.0372 -0.0179,0.0537 0,0.0193 0.0179,0.0537 0.0372,0.0537 h 0.0165 c 0.0372,0 0.073,-0.0537 0.0896,-0.0896 0,-0.14332 -0.17914,-0.0896 -0.17914,-0.23289 0,-0.0179 0.0358,-0.0703 0.0358,-0.0896 l -0.0537,-0.0537 c 0,0.0358 -0.0179,0.073 -0.0717,0.073 -0.0358,0 -0.10611,-0.0372 -0.1254,-0.073 l 0.0537,-0.1254 c 0.0537,0 0.0896,0.0358 0.14331,0.0358 0.0179,-0.0179 0.0717,-0.0537 0.0717,-0.0717 0,-0.0551 -0.0537,-0.0551 -0.0896,-0.0551 h -0.0537 c -0.0358,0 -0.0717,0 -0.0717,-0.0179 0,-0.0345 0.0358,-0.0524 0.0717,-0.0524 0.0179,0 0.14332,0.0179 0.17915,0.0358 l 0.0372,-0.0358 c 0,-0.0537 -0.23427,-0.10748 -0.23427,-0.21635 0,-0.14332 0.0717,-0.24942 0.14332,-0.3762 v -0.1254 c 0,-0.0179 0,-0.0537 0.0372,-0.14332 0,0 0.0537,0 0.0717,0.0345 l -0.0179,0.0551 c 0.0179,0.0537 0.0179,0.10749 0.0524,0.1254 0.073,0 0.19705,-0.0896 0.19705,-0.14332 0,-0.10748 -0.23151,-0.0896 -0.23151,-0.26871 0,-0.091 0.0882,-0.12678 0.1254,-0.19844 0.10611,0.0193 0.0524,0.0909 0.0882,0.14469 0.0179,-0.0537 0.1447,-0.36104 0.1447,-0.37758 0,-0.0179 -0.0358,-0.0179 -0.0551,-0.0179 -0.0717,0 -0.0717,0.0537 -0.0896,0.0717 h -0.0179 c 0.0358,-0.0882 0.10749,-0.28663 0.10749,-0.35829 0,-0.0524 -0.0896,-0.0717 -0.0896,-0.1254 0,-0.0537 0.10886,-0.10749 0.19843,-0.34176 0,0.0538 0.0537,0.10887 0.0717,0.18053"
         id="path855" />
      <path
         style="fill:#f0ab35;fill-opacity:1;fill-rule:nonzero;stroke:none;stroke-width:0.352777"
         d="m 163.56781,3.4663201 c -0.0717,0 -0.1254,-0.0179 -0.14331,-0.0358 0.0537,0 0.1254,0.0358 0.17914,0.0358 z m -0.21635,-0.0358 v -0.0179 z m -1.05696,3.24665 0.0179,-0.0193 -0.0179,-0.0165 z m -0.25218,-1.84794 0.0179,-0.0165 c 0.0179,0 0.0179,0 0.0179,-0.0179 0,0.0179 0,0.0179 -0.0179,0.0345 z m 0.0179,0.27009 0.0179,-0.0193 c -0.0179,0 -0.0358,0 -0.0537,0.0193 z m -0.0179,-0.27009 c 0,0.0179 0,0.0179 -0.0179,0.0179 0,-0.0179 0,-0.0179 0.0179,-0.0179 m -0.1254,-1.70326 c 0.0372,-0.0358 0.0896,-0.0717 0.1254,-0.0717 -0.0358,0.0179 -0.0717,0.0537 -0.1254,0.0717 m -0.1254,0.0882 c 0.0193,-0.0165 0.0537,-0.0703 0.073,-0.0882 l 0.0345,0.0358 c 0,0.0358 -0.0538,0.0524 -0.0882,0.0717 z m -0.0179,-0.0882 c -0.0882,0.16123 -0.30455,0.28663 -0.39412,0.44786 v -0.0179 c 0.0717,-0.0896 0.23289,-0.41203 0.39412,-0.42994 m -1.2361,3.87366 v -0.0179 l -0.0372,0.0179 z m -0.0551,0.0358 v 0.0179 c 0.0179,-0.0179 0.0179,-0.0358 0.0179,-0.0538 z m -0.0896,0.0717 c -0.0179,0.0179 -0.0179,0.0179 -0.0538,0.0179 z m -0.62701,-2.34956 c -0.0372,0 -0.0372,0.0372 -0.0372,0.0551 0.0179,-0.0179 0.0372,-0.0372 0.0372,-0.0551 m 1.61368,1.0225 c 0.1254,-0.0717 0.25081,-0.21359 0.30593,-0.35828 l -0.0193,-0.0179 c 0.0193,-0.16123 0.23289,-0.35966 0.35829,-0.46577 l -0.0179,-0.0358 0.0179,-0.0372 0.0358,0.0372 0.0909,-0.12678 -0.0372,-0.0358 0.0551,-0.0537 c 0,-0.25081 0.57326,-0.84336 0.78824,-0.98668 0.073,-0.0165 0.14331,-0.0537 0.21635,-0.0537 l 0.0165,0.0179 c 0.0717,0 0.10887,-0.0896 0.19844,-0.0896 v 0.0179 c 0.0358,-0.0358 0.10749,-0.0703 0.19706,-0.0703 v 0.0345 l 0.0717,-0.0345 0.0896,0.0165 0.0551,-0.0165 c 0.0179,0.10611 0.0882,0.0882 0.0882,0.19568 0,0.0896 -0.0524,0.21497 -0.0703,0.30592 v 0.0165 c -0.16261,0.35966 -0.37758,0.86265 -0.43133,1.23885 -0.0372,0.35829 -0.0717,0.77033 -0.19843,1.09279 0,0.0193 0,0.0551 -0.0344,0.0551 -0.0551,0 -0.0551,0.19706 -0.0551,0.23151 0,0.23427 -0.0703,0.43133 -0.0703,0.66559 0,0.10749 0.0358,0.68213 0.23151,0.68213 l 0.12677,-0.0896 c 0.0538,0 0.0179,0.0896 0.0896,0.0896 0,0.0524 -0.0537,0.01651 -0.0717,0.0896 0.0179,0.01651 0.0537,0.0358 0.0537,0.0703 l -0.0358,0.0909 v 0.0345 c -0.0358,0 -0.073,0.0551 -0.073,0.073 l 0.0193,0.01791 c 0,0.0537 -0.0717,0.0537 -0.10886,0.0703 l -0.0165,-0.0345 -0.0896,0.0537 h -0.0551 c -0.0524,0 -0.10611,0.0358 -0.16123,0.0358 -0.0717,-0.0358 -0.10749,-0.0717 -0.16123,-0.0717 l -0.0179,0.01659 c -0.10748,-0.01659 -0.28663,-0.16123 -0.35967,-0.213601 -0.21359,-0.107479 -0.23151,-0.304538 -0.23151,-0.51952 0,-0.10886 -0.0909,-0.216349 -0.0909,-0.32384 0,-0.179139 0.0909,-0.39549 0.0909,-0.60909 l -0.0179,-0.0193 0.0179,-0.0537 c 0,-0.26871 0.0717,-0.42995 0.0717,-0.66421 0,-0.0166 -0.0358,-0.0717 -0.0358,-0.0882 -0.0179,0.17777 -0.35967,0.39274 -0.41341,0.55535 -0.14332,0.19706 -0.28663,0.37621 -0.41204,0.55535 -0.5016,0.35967 -0.39412,0.41341 -0.75378,0.73588 -0.12541,0.126769 -0.28663,0.214968 -0.42995,0.323828 v -0.01929 c -0.30455,0 -0.53743,0.161229 -0.84336,0.161229 -0.0179,0 -0.10749,-0.0537 -0.14331,-0.0537 l -0.0717,0.01929 c -0.25218,-0.288009 -0.37759,-0.57464 -0.37759,-0.9343 0,-0.44649 0.1447,-0.89711 0.30593,-1.32706 0.14332,-0.39412 0.34037,-0.77032 0.57464,-1.12999 0.0717,-0.1254 0.16123,-0.2508 0.23151,-0.35829 l 0.0909,-0.14331 c 0,0 0.0703,-0.0179 0.0703,-0.0358 l 0.23427,-0.48369 c 0,-0.0193 0.14331,-0.14331 0.14331,-0.1626 0,-0.0717 0.91502,-0.7345 1.05833,-0.82407 0.17915,0 0.35967,-0.0717 0.50161,-0.14469 0,0 0.19844,-0.0896 0.23427,-0.0896 0.0179,0 0,0 0,0.0179 0.0537,-0.0179 0.21497,-0.0537 0.35829,-0.0537 0.0372,0 0.0717,0 0.0896,0.0193 l -0.0179,-0.0372 c 0.32246,0 0.6463,0.30593 0.84336,0.5209 0.0179,0.0358 0.0358,0.0537 0.0896,0.0537 l -0.0179,0.0179 0.0358,0.0537 v 0.0165 l -0.0896,-0.0165 -0.0358,0.0358 c 0,0.0896 0.1254,0.10748 0.1254,0.16123 l -0.0896,-0.0537 -0.10749,0.0358 c 0,0.0717 0.10749,0.0896 0.19706,0.10749 -0.3955,-0.0896 -0.42995,-0.0537 -0.7717,-0.27009 -0.1254,-0.0703 -0.2508,-0.26735 -0.39412,-0.26735 -0.0193,0 -0.34175,0.0882 -0.37758,0.10749 0.0551,-0.0551 0.12678,-0.073 0.19844,-0.10749 -0.0896,0 -0.53882,0.21498 -0.53882,0.30455 h 0.0896 c -0.0179,0.0896 -0.21497,0.32246 -0.32245,0.34038 l 0.0358,0.0358 -0.0358,0.0179 0.0537,0.0537 c -0.12403,0.0896 -0.30455,0.288011 -0.30455,0.42995 -0.0896,0.073 -0.41341,0.646301 -0.43133,0.75516 -0.16123,0.0882 -0.34037,0.483691 -0.39411,0.664221 v -0.0193 c -0.28664,0.32384 -0.75242,1.57785 -0.78962,2.04501 0.0372,0.0358 -0.0179,0.0717 0.0551,0.0717 0.14332,-0.16124 0.44786,-0.44787 0.68075,-0.50299 h 0.0717 l 0.0358,-0.0717 h -0.0179 c 0.0179,-0.0537 0.14331,-0.16123 0.16261,-0.21359 v 0.0179 c 0,-0.14469 0.10611,-0.30593 0.26734,-0.35967 h -0.0179 c 0.0179,-0.0896 0.23426,-0.10886 0.23426,-0.27009 l -0.0193,-0.0179 0.0909,-0.0538 h -0.0179 c 0.0179,-0.1254 0.1254,-0.2508 0.25081,-0.32108 l 0.0193,-0.0551 z m 0,0"
         id="path857" />
      <path
         style="fill:#f0ab35;fill-opacity:1;fill-rule:nonzero;stroke:none;stroke-width:0.352777"
         d="m 167.89072,3.3409101 c 0,-0.0179 0,-0.0179 0.0179,-0.0372 0,0.0193 0,0.0193 -0.0179,0.0372 m -0.0896,0.3583 h 0.0179 z m -2.13596,1.50757 c 0.0193,-0.0358 0.0537,-0.0909 0.0537,-0.14469 l -0.0537,-0.0179 0.0193,0.0179 c -0.0193,0.0372 -0.0193,0.0716 -0.0372,0.0909 z m -0.0717,-0.0358 c 0,-0.0179 0.0179,-0.0372 0.0179,-0.0551 -0.0179,0.0179 -0.0179,0.0372 -0.0179,0.0551 m -0.8599,-0.23427 h 0.0358 c 0,-0.0165 -0.0179,-0.0165 -0.0358,-0.0165 z m -0.0537,0.17915 0.0358,0.0179 c 0,-0.0537 0,-0.1254 0.0179,-0.16123 -0.0358,0 -0.0537,0.0896 -0.0537,0.14331 m -0.0358,0.2701 v 0.0358 z m 0.0179,-0.0358 h 0.0358 l -0.0358,-0.0537 c 0,0.0193 0,0.0537 -0.0179,0.0537 z m -0.0537,0.34175 c 0.0179,-0.0372 0.0179,-0.0551 0.0179,-0.073 l -0.0358,0.0537 z m -0.0537,0.2136 v -0.0358 z m 0,-0.0896 v -0.0358 h -0.0179 z m -0.0179,0.14469 c -0.0372,0.0165 -0.0372,0.0165 -0.0372,0.0358 l 0.0193,0.0358 z m -0.18052,0.77033 c 0,0.0179 0.0372,0.0537 0.0537,0.0537 0,-0.14332 0.0551,-0.32246 0.0896,-0.48369 l -0.0179,-0.0179 c -0.0717,0 -0.0358,0.17915 -0.0717,0.23289 0,0.0896 -0.0537,0.16123 -0.0537,0.21497 m 0.0372,0.0896 c -0.0551,0 -0.0717,0.0372 -0.0717,0.0551 0,0.0165 0,0.0524 0.0165,0.0524 -0.0537,0.1254 -0.0703,0.2701 -0.0703,0.3955 0,-0.0358 0.0166,-0.073 0.0537,-0.10749 0,-0.14469 0.0165,-0.27009 0.0717,-0.3955 m -0.18052,0.96877 c 0.0193,-0.0537 0.0358,-0.10749 0.0358,-0.16124 z m 0,0.091 -0.0537,0.0524 h 0.0537 -0.0344 l 0.0344,-0.01651 z m -0.0537,0.26871 h -0.0166 l 0.0166,0.01651 z m -0.16123,-0.30592 h -0.0538 l 0.0717,-0.0358 z m -0.0896,0.485069 c 0.0179,0 0.0179,0 0.0179,0.01791 z m 0,-0.0372 v -0.0345 c 0,-0.01791 0,-0.0716 0.0179,-0.0716 v 0.0537 z m 0.0537,-0.28525 c 0,0.0524 -0.0179,0.106109 -0.0358,0.143309 l -0.0179,-0.01929 c 0.0179,-0.0537 0.0358,-0.107492 0.0358,-0.161232 z m 1.38079,-5.687171 -0.0358,-0.0372 c 0.0358,-0.0165 0.091,-0.0882 0.12679,-0.0882 l 0.0358,0.0179 0.0358,-0.0358 v -0.0179 c 0,0.0537 0.10611,0.0717 0.17914,0.0717 l 0.16123,0.10748 0.0358,-0.0358 0.0179,0.0358 v 0.073 c 0.0179,0 0.0537,0 0.0537,0.0524 v 0.0179 c -0.0358,0.0896 -0.0358,0.16123 -0.0358,0.21497 v 0.1447 c 0,0.15985 -0.10748,0.32246 -0.10748,0.5016 l 0.0179,0.0537 c -0.28663,0.37621 -0.16261,0.80754 -0.32247,1.22095 -0.0179,0.0345 -0.0358,0.0882 -0.0358,0.12402 0,0.0179 0,0.0358 0.0179,0.073 -0.21635,0.39411 -0.21635,0.82406 -0.288,1.02112 l 0.0179,0.0358 c 0.16261,-0.34037 0.25218,-0.44786 0.30592,-0.66283 l -0.0179,-0.0537 0.0179,0.0179 c 0.0703,0 0.48369,-0.93294 0.78824,-1.22095 0.18052,-0.16123 0.35967,-0.34037 0.48507,-0.53743 0.26872,-0.1254 0.50161,-0.1254 0.77032,-0.214969 v 0.0165 c 0,0 0.0358,-0.0165 0.0717,-0.0165 0.18052,0 0.30593,0.0896 0.30593,0.214969 0,0.2508 -0.14332,0.28663 -0.32384,0.3762 l -0.0358,-0.0358 -0.10749,0.0896 -0.0524,-0.0165 -0.0358,0.0896 -0.0179,0.0165 h 0.0179 l -0.073,-0.0358 v 0.0909 c -0.0538,0 0,-0.14469 -0.073,-0.14469 0,0.10748 -0.19569,0.21635 -0.26596,0.25218 h 0.0165 c 0,0.3762 -0.5209,0.70004 -0.5209,0.77032 h 0.0193 c -0.0372,0.0551 -0.18053,0.26872 -0.18053,0.34175 v 0.0179 l -0.0345,0.0179 c -0.073,0.28663 -0.27009,0.46578 -0.37758,0.7345 l 0.0358,0.0193 c -0.19706,0.12403 -0.0717,0.57327 -0.34175,0.78824 v -0.0179 c -0.0524,0.1254 -0.0882,0.25081 -0.15985,0.37758 l 0.0179,0.0537 c -0.25218,0.23289 -0.19844,0.62701 -0.30593,0.71796 l -0.21497,0.501599 0.0179,-0.01791 c -0.0537,0.179149 -0.14332,0.323839 -0.23289,0.483701 l -0.0179,-0.01791 c 0,0.0896 -0.16123,0.14332 -0.25218,0.161232 l -0.0358,-0.01791 c -0.0882,0 -0.32246,-0.106109 -0.35829,-0.161229 l -0.0537,0.01791 c -0.0717,-0.0717 -0.14332,-0.125399 -0.23151,-0.179139 0,-0.0717 0.23151,-0.322461 0.24942,-0.75379 h -0.0179 c -0.0358,0 -0.0358,-0.01651 -0.0358,-0.0358 0.0358,0 0.0538,0 0.0538,0.01929 0.0358,-0.0358 0.0358,-0.197059 0.0537,-0.252178 l -0.0179,-0.0896 c 0.0909,-0.0537 0.0358,-0.27009 0.073,-0.35828 0,0 -0.0179,-0.0358 -0.0179,-0.0551 0,-0.42994 0.28663,-0.78823 0.28663,-1.38079 0.0165,-0.0537 0.0358,-0.1254 0.0717,-0.16123 l -0.0193,-0.0703 0.0358,-0.0551 v -0.21498 c 0,-0.0537 0,-0.1254 -0.0165,-0.179139 0.0165,-0.0372 0.17915,-0.610471 0.19706,-0.664221 0.19706,-0.71795 0.42995,-1.30913 0.6091,-2.00918 0.0358,-0.0165 0.0717,-0.0717 0.0717,-0.10748"
         id="path859" />
      <path
         style="fill:#f0ab35;fill-opacity:1;fill-rule:nonzero;stroke:none;stroke-width:0.352777"
         d="m 172.06893,4.9904301 c 0,0.0179 -0.0179,0.0372 -0.0358,0.0372 l -0.0345,-0.0372 0.0345,-0.0179 z m -0.2136,0.1626 c 0.0179,-0.0179 0.0358,-0.0179 0.0524,-0.0179 -0.0166,0 -0.0344,0.0179 -0.0524,0.0179 m 0,0 0.0179,0.0537 c -0.0358,0.0717 -0.1447,0.28525 -0.23427,0.28525 -0.0358,0 -0.0358,0 -0.0358,-0.0165 0,-0.0179 0,-0.0358 -0.0179,-0.0537 0.0896,-0.0717 0.16123,-0.19707 0.27009,-0.26872 m -1.21956,1.41662 h 0.0179 z m -0.27009,0.91502 h -0.0538 l 0.0358,0.0179 z m -0.82545,0.734489 c -0.0358,0 -0.0537,0.0372 -0.0537,0.0717 l 0.0179,0.073 0.0896,-0.01791 c -0.0179,-0.0551 -0.0179,-0.0896 -0.0537,-0.126769 m -0.3762,-5.45152 c 0,0.0345 0.0179,0.0537 0.0358,0.0717 l 0.0717,-0.0372 -0.0358,-0.10749 -0.0358,0.0193 z m -0.0358,0.21359 h 0.0165 c 0,0 0.0193,0 0.0193,-0.0179 -0.0193,0 -0.0193,0.0179 -0.0358,0.0179 m -0.1254,0.21635 0.0537,0.10611 0.21497,-0.17914 c 0,-0.0524 -0.0896,-0.0703 -0.12678,-0.0703 -0.0703,0 -0.12402,0.10749 -0.14194,0.14331 m -0.0358,-0.42994 h 0.0538 c 0,-0.0372 0,-0.0537 -0.0358,-0.0537 l -0.0179,0.0345 z m 0.0179,0.60909 -0.0538,0.0717 0.0166,0.0179 z m -0.0717,0.23289 0.0179,0.0358 0.0165,-0.0179 v -0.0717 z m -0.14469,1.45245 c 0,-0.0179 -0.0166,-0.0179 -0.0344,-0.0345 0,0.0345 0,0.0345 0.0179,0.0524 z m -0.17776,0.61185 -0.0372,0.0345 v 0.0372 c 0.0193,-0.0193 0.0372,-0.0372 0.0551,-0.0372 z m -0.0372,-1.70601 v 0.0193 l 0.0717,-0.0716 c 0,0 0,-0.0551 -0.0344,-0.0551 -0.0372,0 -0.0372,0.0716 -0.0372,0.107479 m -0.0717,2.476341 c 0,-0.0179 0,-0.0179 -0.0179,-0.0179 v 0.0358 z m 0,-0.14332 0.0358,-0.0358 -0.0179,-0.0372 c -0.0358,0 -0.0717,0 -0.0717,0.0551 0.0358,0 0.0537,0.0179 0.0537,0.0179 m -0.10749,0.57463 h 0.0179 c 0,-0.0179 0,-0.0372 -0.0179,-0.0551 l -0.0179,0.0372 c 0,0 0,0.0179 0.0179,0.0179 m -0.0179,0.19568 -0.0358,-0.0717 -0.0358,0.0717 0.0358,0.0179 z m 0.34038,-2.439121 c 0,-0.21498 0.16123,-0.28663 0.16123,-0.32247 -0.0537,-0.0537 -0.0717,-0.10748 -0.0717,-0.18052 0.0358,-0.0165 0.0358,-0.0537 0.0358,-0.0703 0,-0.0358 0,-0.0717 -0.0179,-0.0717 -0.14194,0 -0.1254,0.44787 -0.2136,0.573271 0,0.0358 0.0179,0.0717 0.0179,0.125399 0,0.0896 -0.23427,0.39412 -0.23427,0.44924 0,0.0358 0.0179,0.0537 0.0179,0.0717 -0.14331,0.0717 -0.16123,0.57326 -0.16123,0.66283 0,0.0358 0.0179,0.073 0.0179,0.10749 l -0.0717,0.0909 c 0.0179,0.0524 0.0538,0.0896 0.10749,0.0896 0,0 0.26872,-0.61048 0.26872,-0.843369 l -0.0179,-0.0358 0.073,-0.198441 c -0.0179,-0.0179 -0.0358,-0.0717 -0.0358,-0.10749 0.0358,-0.0345 0.12402,-0.28663 0.12402,-0.34037 m -0.53744,0.52089 v 0.0717 c 0,0.0358 0,0.107491 0.0538,0.107491 0.0358,-0.0537 0.0717,-0.197061 0.0717,-0.270091 l -0.0358,-0.0179 c -0.0179,0.0179 -0.0538,0.073 -0.0896,0.108871 m -0.0358,2.151119 0.0358,-0.0165 0.0717,0.0358 v 0.0358 c 0,0.0179 0,0.0358 -0.0179,0.0358 h -0.0179 c -0.0358,-0.0358 -0.0358,-0.0551 -0.0717,-0.0909 m 0.0537,0.844739 c 0,0.0524 0.0179,0.107479 0.0179,0.161229 0,0.0537 -0.0179,0.0896 -0.0537,0.0896 0,0 -0.0537,0 -0.0537,-0.01791 0,-0.180528 0.0537,-0.359669 0.0537,-0.538818 l 0.0537,0.073 v 0.143322 c -0.0179,0.01651 -0.0179,0.0524 -0.0179,0.0896 m -0.0358,0.752412 -0.0537,-0.01791 -0.0372,0.0358 0.0372,0.01932 z m 0.2329,-1.703259 -0.0358,-0.0537 -0.10749,0.0717 c -0.0717,0 -0.0717,-0.198439 -0.0717,-0.23427 0,-0.12402 0.0358,-0.16123 0.0717,-0.268719 -0.0179,-0.0358 -0.0358,-0.0716 -0.0358,-0.0896 0,-0.107489 0.10749,-0.107489 0.10749,-0.23426 0,-0.0524 -0.0179,-0.10612 -0.0717,-0.16124 -0.0538,0 -0.23289,0.78962 -0.23289,1.041801 0.0179,0.0179 0.0524,0.0896 0.0896,0.125399 -0.0372,0.0358 -0.10887,0.179151 -0.10887,0.179151 0,0.179139 0.0193,0.341749 0.0193,0.501597 -0.0551,0.073 -0.0551,0.197062 -0.0551,0.270102 v 0.0358 c 0.0358,0.0537 0.0551,0.35829 0.14469,0.35829 0,-0.01651 0.0179,-0.0896 0.0358,-0.0896 0.0358,0.073 0.0537,0.143322 0.10749,0.214982 0.0717,0 0.0896,0 0.0896,-0.0717 -0.0358,-0.01651 -0.0896,-0.0537 -0.0896,-0.0896 0.0537,-0.01791 0.10749,-0.0717 0.10749,-0.125399 0,-0.125402 -0.0896,-0.232891 -0.0896,-0.359672 0,-0.143319 0.0717,-0.30317 0.0717,-0.465778 0,-0.0896 -0.0179,-0.19706 -0.0179,-0.28663 0,-0.0717 0.0179,-0.14332 0.0537,-0.19706 z m -0.39551,-1.220941 -0.0524,-0.0345 v 0.0179 l 0.0165,0.0345 z m 3.39136,-0.12402 c -0.17915,0.26734 -0.46715,0.53606 -0.46715,0.85989 0,0.35829 -0.50161,1.09417 -0.75242,1.382168 l 0.0179,0.0537 c -0.26871,0.412031 -0.87918,1.543402 -1.50619,1.543402 -0.34176,0 -0.43133,-0.253561 -0.6463,-0.323842 -0.43133,-0.143309 -0.43133,-1.579228 -0.43133,-1.955427 0,-0.250811 0.0179,-0.502991 0.10887,-0.75517 0,-0.0882 0.10749,-0.35691 0.10749,-0.392741 0,-0.0193 -0.0179,-0.0551 -0.0358,-0.0551 0,-0.23289 0.0717,-0.44786 0.10748,-0.71796 v -0.0165 l 0.0703,-0.19706 c 0.0551,-0.14332 0.073,-0.28801 0.073,-0.43133 0,-0.26872 0.14332,-0.57464 0.21498,-0.84198 0.1254,-0.44924 0.19706,-0.95085 0.44786,-1.38217 0,-0.10749 -0.44786,-0.10749 -0.51952,-0.10749 -0.0717,0 -0.23289,0.0179 -0.3762,0.0179 -0.23427,0 -0.44924,-0.0537 -0.44924,-0.26871 0,-0.0717 0.19705,-0.0717 0.23288,-0.0717 h 0.35967 c 0.42995,0 1.02113,-0.0358 1.05833,-0.34176 0.0358,-0.32246 0.34038,-0.66283 0.37621,-1.07624 0.0538,-0.39412 0.34038,-0.77033 0.43132,-1.16445 0.0358,-0.18052 0.26734,-0.46715 0.26734,-0.57464 0,-0.14331 0.0551,-0.3955 0.21635,-0.3955 0.37759,0 0.80753,0.50299 0.80753,0.82545 0,0.14469 -0.18052,0.21497 -0.18052,0.43133 -0.30317,0.60909 -0.44786,1.30913 -0.77032,1.86448 l 0.0717,0.0717 c 0.17914,0 0.32246,0 0.50298,0.0372 0,0.10748 -0.50298,0.21497 -0.57464,0.24942 -0.19706,0.0909 -0.50298,0.93431 -0.50298,1.15066 0,0 0.0358,0.0165 0.0358,0.0331 -0.17915,0.16261 -0.71796,2.04638 -0.7717,2.35093 -0.0358,0.21498 -0.0179,0.95085 -0.17777,1.11208 0,0.61047 -0.10749,1.23886 -0.10749,1.847949 v 0.0537 c 0,0.0551 0,0.0717 0.0882,0.125399 h -0.0179 c 0,0.01791 0.66421,-0.429948 1.36426,-1.489648 0.0166,-0.0165 0.19706,-0.339 0.39412,-0.339 h 0.0537 c 0.0358,0 0.0537,-0.0193 0.0537,-0.10749 -0.0358,0 -0.0896,0 -0.10749,0.0524 l -0.0358,-0.0179 c 0,-0.26871 0.59256,-0.39412 0.59256,-0.75378 0,-0.0703 0,-0.0703 0.0358,-0.0703 h 0.0179 c 0.0179,0 0.0358,0 0.0717,-0.073 h -0.0358 c 0.0896,-0.0524 0.10749,-0.17914 0.24943,-0.17914 z m 0,0"
         id="path861" />
      <path
         style="fill:#f0ab35;fill-opacity:1;fill-rule:nonzero;stroke:none;stroke-width:0.352777"
         d="m 176.3753,5.4754901 c -0.0372,0.0179 -0.0896,0.0179 -0.12678,0.0358 0.073,-0.0358 0.0372,-0.0537 0.12678,-0.0537 z m -0.37758,0.23289 c 0.0717,-0.0716 0.17914,-0.1254 0.2508,-0.19706 -0.0179,0.10749 -0.16123,0.19706 -0.2508,0.21498 z m -1.18374,-1.86586 c 0,0.0537 0.0179,0.1254 0.0717,0.1254 0.10749,-0.14194 0.19706,-0.34037 0.23289,-0.5016 l 0.0179,-0.0358 -0.0537,-0.0179 c -0.0537,0 -0.26872,0.3762 -0.26872,0.42994 m -0.66421,4.17959 c 0.0193,0 0.0358,0.01931 0.0358,0.01931 0.0717,0 0.19706,-0.091 0.23289,-0.107489 l -0.0165,-0.0372 c -0.1254,0 -0.14469,0.108868 -0.23289,0.108868 z m -1.54203,-2.672009 c 0,0.0358 0,0.14331 0.0717,0.14331 0.0896,0 0.43133,-0.17914 0.51953,-0.23288 0.19843,0 1.40008,-0.91502 1.418,-1.05834 0.0358,-0.21497 0.16123,-0.43132 0.16123,-0.6463 0,-0.14331 -0.0358,-0.78824 -0.28801,-0.78824 -0.53744,0 -1.20165,1.59577 -1.52411,1.82866 -0.0717,0.21635 -0.19706,0.51952 -0.35829,0.68213 z m -0.53881,-0.50299 0.0179,0.0372 c 0.0179,-0.0193 0.0358,-0.0193 0.0358,-0.0372 z m -0.0358,0.95085 c -0.0179,0.0358 -0.0358,0.0551 -0.0358,0.10749 l 0.0358,-0.0179 z m -0.0524,-1.04042 -0.073,0.0372 0.0179,0.0524 0.0717,-0.0524 c 0,-0.0179 -0.0165,-0.0179 -0.0165,-0.0372 m 0.0165,-0.1254 -0.0165,-0.0358 c -0.0372,0.0358 -0.0551,0.0537 -0.073,0.10749 h 0.0358 c 0.0372,-0.0179 0.0372,-0.0537 0.0538,-0.0717 m -0.34038,2.08084 -0.0551,-0.0179 v 0.0717 z m -0.0717,-0.91502 -0.0179,-0.0358 -0.0717,0.0358 v 0.0896 l 0.0358,-0.0179 z m -0.0896,0.19844 -0.0179,-0.0193 h 0.0179 l -0.0179,-0.0165 v 0.0358 z m -0.0896,0.89572 c 0,-0.0165 0,-0.0537 -0.0179,-0.0717 -0.0717,0 -0.0909,0.0717 -0.0909,0.10749 0,0.0372 0.0358,0.0537 0.0551,0.0537 0,-0.0165 0.0538,-0.0716 0.0538,-0.0896 m 0.0537,-0.71796 c 0,-0.0165 0,-0.0882 -0.0358,-0.0882 -0.0358,0 -0.0909,0.23289 -0.12678,0.26734 0,0.0372 0,0.073 0.0358,0.091 0.0193,-0.091 0.073,-0.19844 0.12678,-0.2701 m -0.19844,0.34176 -0.0179,0.0717 c 0,0.0358 0,0.0537 0.0179,0.0896 0.0179,-0.0179 0.0358,-0.0358 0.0358,-0.0717 0,-0.0179 -0.0358,-0.0717 -0.0358,-0.0896 m 0,0.34175 c 0,-0.0193 -0.0179,-0.0537 -0.0358,-0.0717 l -0.0179,0.0717 z m 5.27375,-1.25677 c -0.46577,0.59118 -1.07487,1.11208 -1.68534,1.5434 -0.17914,0.1254 -0.75378,0.35829 -0.78962,0.53744 l 0.0896,0.0372 -0.14331,0.1061 0.0179,0.0179 c 0.23289,-0.0537 0.35829,-0.2136 0.55673,-0.30455 l 0.21497,0.091 c -0.0717,0.0703 -0.17915,0.15985 -0.30593,0.23151 l 0.073,0.0537 c -0.16123,0.0909 -0.30592,0.197062 -0.46715,0.304552 -0.10749,0.0717 -1.13,0.431329 -1.23748,0.431329 -1.02113,0 -1.84657,-0.501611 -1.84657,-1.2554 0,-0.53743 0.0345,-1.25677 0.32108,-1.74046 -0.0537,0.0537 0.25218,-0.30455 0.25218,-0.55535 0,-0.53881 1.25539,-1.97335 1.61368,-2.36747 0.2701,-0.30592 0.62839,-0.3955 1.05834,-0.3955 0.68212,0 1.22094,0.50299 1.22094,1.11208 0,0.89711 -0.34175,0.75379 -0.44924,1.11208 -0.21498,0.66421 -1.5062,1.27331 -2.22416,1.27331 -0.10748,0 -0.19706,-0.0179 -0.30454,-0.0179 -0.25081,0 -0.32384,0.78961 -0.44924,0.87918 v 0.0717 c 0,0.19844 -0.0537,0.6463 -0.0537,0.80753 0,0.17914 0,0.69867 0.288,0.69867 1.757,0 2.47496,-1.84658 3.73035,-2.43913 0.14332,-0.0717 0.43133,-0.21498 0.44924,-0.35829 z m 0,0"
         id="path863" />
    </g>
  </g>
</svg>
